/* XPM */
static char *_3a9346efaee4215e81db46a24883e31KytNVYwxWXw0RCyQ[] = {
/* columns rows colors chars-per-pixel */
"64 64 96 2 ",
"   c #000000",
".  c #04060A",
"X  c #05080E",
"o  c #060B13",
"O  c #080D16",
"+  c #070D18",
"@  c #090E19",
"#  c #0A111C",
"$  c #0C1423",
"%  c #0E192B",
"&  c #101B2E",
"*  c #111E34",
"=  c #101F38",
"-  c #14223B",
";  c #152642",
":  c #162946",
">  c #182846",
",  c #172C4D",
"<  c #1A2B4C",
"1  c #162D52",
"2  c #1A2E51",
"3  c #1B3255",
"4  c #1C345B",
"5  c #1D395E",
"6  c #20365F",
"7  c #1E3964",
"8  c #1F3D6B",
"9  c #213A65",
"0  c #223D6B",
"q  c #21406C",
"w  c #234274",
"e  c #284576",
"r  c #26457A",
"t  c #26487F",
"y  c #234680",
"u  c #264A84",
"i  c #294B84",
"p  c #274D88",
"a  c #2A4E8A",
"s  c #2C518D",
"d  c #2D5493",
"f  c #2F5897",
"g  c #2E569A",
"h  c #2E589D",
"j  c #315897",
"k  c #30579A",
"l  c #315A9F",
"z  c #2F5AA2",
"x  c #315DA4",
"c  c #315EAA",
"v  c #3362A3",
"b  c #3462AC",
"n  c #3565B3",
"m  c #3864B4",
"M  c #3568B5",
"N  c #396AB7",
"B  c #3767B9",
"V  c #366ABB",
"C  c #396ABD",
"Z  c #366DC4",
"A  c #396DC5",
"S  c #366EC8",
"D  c #3A6FC9",
"F  c #3771C8",
"G  c #3A72CC",
"H  c #3C75D2",
"J  c #3C76D5",
"K  c #3D77D7",
"L  c #3D78D7",
"P  c #3D77D8",
"I  c #3F7ADB",
"U  c #3E7ADC",
"Y  c #3D7BDE",
"T  c #3F7BE0",
"R  c #3F7DE2",
"E  c #3F7FE7",
"W  c #3F7EE8",
"Q  c #407DE3",
"!  c #417EE4",
"~  c #3E82EA",
"^  c #3F82EB",
"/  c #3F85EF",
"(  c #3F84F1",
")  c #3F87F4",
"_  c #4280E6",
"`  c #4280E8",
"'  c #4082EC",
"]  c #4283EF",
"[  c #4483F2",
"{  c #4184F0",
"}  c #4384F1",
"|  c #4385F2",
" . c #4384F3",
".. c #4185F4",
"X. c #4288F5",
"o. c #478AF4",
/* pixels */
"                                                                                                                                ",
"                                                                                                                                ",
"                                            o # @ o X + % * * - ; ; - $ + .                                                     ",
"                                      . < h K _ R H A I ' } } ......} _ U n t 4 * X                                             ",
"                                    < V } ..} } / H n G ! c b T a g } G U } ( ..^ A 0 .                                         ",
"                              X 2 n ' } ..} } ..a X . o * M o a s . 9 j * B p R ..W A C @                                       ",
"                            * I ) [ I g w b E } ! b 2 O   n % . b %   b ; x . X 3 b ' ( D .                                     ",
"                          % H } D 2 .       o 4 Z C f G 4 a 5   q 3   9 < -         q ' } w                                     ",
"                        - K } x o               o N i $ % . .   X .   .               g } H o                                   ",
"                      $ H } d .                   O O                                 @ E ' 4                                   ",
"                      d } B .                                                           i } C X                                 ",
"                    - } } :                 # 3 .                                       1 X.} -                                 ",
"                    i } A X               o C ..d                     < H I 6           , ..} r                                 ",
"                    x } g                 ; ' ( b                   . K } } C           * X.} B .                               ",
"                    n } p                   0 Z ;                   + I ' H >           o F } a                                 ",
"                    H } w                     .                       + $ o             o L } ,                                 ",
"                    U } 4                                                               4 ..} 4                                 ",
"                  . ` / -                     .                                         B } } 4                                 ",
"                  . ' ' *                     9 3                     @               o ` } G #                                 ",
"                  O } } 4                     @ b t .               3 j               w ..} r                                   ",
"                  . G } A @                     . r V s 9 : - = 3 b d #             . H } K @                                   ",
"                    4 ..} G &                       o - 7 a d d r $                 - ' } 0                                     ",
"                    o H T } } i #                                                   k } F .                                     ",
"                      * B ^ } } R u % .                                           2 ` n @                                       ",
"                        . ; z R } } ! M 0 $ .                                 o w R K @                                         ",
"                              $ 9 c I } ..^ G h 0 - #   . $             O - i H ' K 2                                           ",
"                                    . $ ; 4 r h F ..^ K H U N V V Z D H E ( ....b @                                             ",
"                                                  $ 0 x E ^ U P H F A S Z d 9 *                                                 ",
"                                                        Z F X .                                                                 ",
"                                                        B I                                                                     ",
"                                                        l ^ o                                                                   ",
"                                                        a ..*                                                                   ",
"                                                        u ) 4                                                                   ",
"                                      .                 y ( d       X X   # <                                                   ",
"                                      e 3   o # $ # # # a ( F 4 s n D Z d V <                                                   ",
"                                      - R x K R ! R R R ^ } } } } } } } } Q n <                                                 ",
"                                      v w n , < : 3 3 3 c } } U Z C C V B z $ @                                                 ",
"                                        % d             y } } h         # i                                                     ",
"                                        o ;             y } } A .                                                               ",
"                                                        y } } R %                                                               ",
"                                                        y ) } ..8                                                               ",
"                                                        x ( ) ) c                                                               ",
"                                                      2 ( ( } } I +                                                             ",
"                                                      4 ( ( ..} ..3                                                             ",
"                                                      t } } } ....g                                                             ",
"                                                      z } } } } } } *                                                           ",
"                                                      n ..} ( } } } w                                                           ",
"                                                    @ L ( ..m ^ } } V                                                           ",
"                                                    < ' } ' % V } } ^ X                                                         ",
"                                                    d ) } Q . 2 ' } ..&                                                         ",
"                                                  . Z } } h     z } ..3                                                         ",
"                                                  ; E ( ` $     * ^ ..T ;                                                       ",
"                                                - ' } ( 0         d } ( E ;                                                     ",
"                                              # ^ } } E @         O U } } T *                                                   ",
"                                              0 } } } U +           2 } } } H # o X                                             ",
"                                          . . D } } } B .             s } } } P H G c 4 o                                       ",
"                                      O N G D ^ } } ..8               o F } } } } } } ' j                                       ",
"                                      : o.} } } ( } M o                 4 } ..} } } } ..t                                       ",
"                                      X U } } } } Z +                   . d } } ) } ' G .                                       ",
"                                        - C E K r +                       . 7 0 7 3 - X                                         ",
"                                          . $ O                                                                                 ",
"                                                                                                                                ",
"                                                                                                                                ",
"                                                                                                                                "
};
