/* XPM */
static char *_b53f50586e3475c9efb08c03bfa6eaczLLGNKdTTkFzEFN5[] = {
/* columns rows colors chars-per-pixel */
"64 64 251 2 ",
"   c #0D0C0D",
".  c #130E0D",
"X  c #13110E",
"o  c #1D120C",
"O  c #0E0F11",
"+  c #120F12",
"@  c #141312",
"#  c #1A1514",
"$  c #1B1917",
"%  c #16171A",
"&  c #191619",
"*  c #1C1A1A",
"=  c #25170B",
"-  c #271B15",
";  c #241D1B",
":  c #291E1A",
">  c #1F201C",
",  c #2F2116",
"<  c #25211D",
"1  c #2B221D",
"2  c #34251B",
"3  c #1B1E28",
"4  c #231E23",
"5  c #1E222C",
"6  c #1C2434",
"7  c #1D263A",
"8  c #1F283A",
"9  c #242224",
"0  c #2B2424",
"q  c #2C2927",
"w  c #24242C",
"e  c #2B262B",
"r  c #2C292C",
"t  c #322622",
"y  c #332A25",
"u  c #3A2B24",
"i  c #352729",
"p  c #332B2B",
"a  c #3B2D2C",
"s  c #3D312C",
"d  c #242632",
"f  c #282733",
"g  c #252935",
"h  c #2C2B33",
"j  c #242A3B",
"k  c #2C2D3B",
"l  c #332E33",
"z  c #3A2E30",
"x  c #312E39",
"c  c #2F3037",
"v  c #2E313C",
"b  c #343135",
"n  c #3C3234",
"m  c #33323C",
"M  c #3A353C",
"N  c #3C383C",
"B  c #412D24",
"V  c #46332C",
"C  c #56382F",
"Z  c #423433",
"A  c #473836",
"S  c #433A3B",
"D  c #4C3C3C",
"F  c #553D38",
"G  c #4D4138",
"H  c #584339",
"J  c #604D3C",
"K  c #1E2A44",
"L  c #242D43",
"P  c #242D47",
"I  c #2A2E42",
"U  c #2C3244",
"Y  c #24324D",
"T  c #2A3448",
"R  c #2C354B",
"E  c #343543",
"W  c #3B3742",
"Q  c #353944",
"!  c #3C3A44",
"~  c #32364B",
"^  c #343A4C",
"/  c #3B3D4C",
"(  c #253553",
")  c #2A3653",
"_  c #2C3A55",
"`  c #273A5A",
"'  c #2C3C5B",
"]  c #343C53",
"[  c #373D57",
"{  c #3A3E52",
"}  c #323E5B",
"|  c #293D62",
" . c #443C43",
".. c #4B3D42",
"X. c #413E4C",
"o. c #483F4B",
"O. c #3C414D",
"+. c #2D405F",
"@. c #3C4154",
"#. c #34415C",
"$. c #3C435B",
"%. c #384559",
"&. c #2C4363",
"*. c #2D466B",
"=. c #2D496C",
"-. c #334463",
";. c #3B4662",
":. c #344867",
">. c #3D4964",
",. c #344A6B",
"<. c #3B4C6A",
"1. c #37546A",
"2. c #3D516E",
"3. c #2B4A74",
"4. c #334E73",
"5. c #3B4E71",
"6. c #2D507C",
"7. c #3B5474",
"8. c #375479",
"9. c #464143",
"0. c #4C4244",
"q. c #44424C",
"w. c #4B434A",
"e. c #534444",
"r. c #57474A",
"t. c #5B4A4D",
"y. c #424354",
"u. c #4B4652",
"i. c #494955",
"p. c #43455B",
"a. c #444A5C",
"s. c #4B4B5B",
"d. c #544A52",
"f. c #5B4C53",
"g. c #594B57",
"h. c #514D5C",
"j. c #4F515F",
"k. c #58525A",
"l. c #5C535C",
"z. c #644C48",
"x. c #64524B",
"c. c #71564D",
"v. c #655558",
"b. c #745C5A",
"n. c #7A645E",
"m. c #434B63",
"M. c #4A4E63",
"N. c #444F6B",
"B. c #524F64",
"V. c #4C5164",
"C. c #485467",
"Z. c #44526D",
"A. c #4C546B",
"S. c #535364",
"D. c #5A5464",
"F. c #57566A",
"G. c #54596C",
"H. c #5C5C6B",
"J. c #435473",
"K. c #485874",
"L. c #445C7D",
"P. c #4B5D7B",
"I. c #535B73",
"U. c #565D76",
"Y. c #645A64",
"T. c #645C67",
"R. c #6A5E6D",
"E. c #5E606F",
"W. c #4B627C",
"Q. c #5C6477",
"!. c #55637C",
"~. c #5C647B",
"^. c #69626B",
"/. c #76686A",
"(. c #666777",
"). c #766D77",
"_. c #75717C",
"`. c #90644E",
"'. c #906E56",
"]. c #877569",
"[. c #867371",
"{. c #9D8879",
"}. c #AD8670",
"|. c #DEAD70",
" X c #304F81",
".X c #2C5886",
"XX c #3C5D84",
"oX c #365C88",
"OX c #2C628F",
"+X c #396388",
"@X c #3C628B",
"#X c #3A6994",
"$X c #3D739D",
"%X c #3D7AA6",
"&X c #475E83",
"*X c #446184",
"=X c #49678A",
"-X c #536584",
";X c #5C6B83",
":X c #586A87",
">X c #536B8B",
",X c #5A728C",
"<X c #456B93",
"1X c #526F93",
"2X c #487198",
"3X c #537395",
"4X c #587797",
"5X c #636B84",
"6X c #68758A",
"7X c #767786",
"8X c #667B97",
"9X c #727A93",
"0X c #467BA4",
"qX c #577CA3",
"wX c #657BA1",
"eX c #827A84",
"rX c #3F82A6",
"tX c #5C829E",
"yX c #6A829B",
"uX c #768598",
"iX c #4A84AA",
"pX c #5685A9",
"aX c #568DB3",
"sX c #5791B4",
"dX c #6488A7",
"fX c #758BA3",
"gX c #6590AD",
"hX c #7593AC",
"jX c #6998B6",
"kX c #7899B4",
"lX c #78A3BD",
"zX c #75A5C4",
"xX c #87878D",
"cX c #8F8C94",
"vX c #B4A399",
"bX c #8896A8",
"nX c #8A96AD",
"mX c #89A6B8",
"MX c #96A9B7",
"NX c #ABAEB5",
"BX c #8BAEC5",
"VX c #98B8C8",
"CX c #ABBBC6",
"ZX c #C0BEC7",
"AX c #A8C5D4",
"SX c #B2C8D0",
"DX c #B8CCD5",
"FX c #C6C8C7",
"GX c #CDD5D6",
"HX c #C7DCE5",
"JX c #CAE2E9",
/* pixels */
"q 0 q r e r w f k d f S x.].`.|.|.'.F m D./.! g m k E Q f f m h w w x h e r r h h w f M m h b w w f w w 5 j 6 j 6 3 5 3 6 6 6 j ",
"q r r h h f h E v g h M l f.c.'.}.c...k m w.W k x x x h m m h m f w r e q q r r m w c h f U d d f h f f 3 3 5 j 8 5 5 6 6 3 6 8 ",
"r r r h h k k Q v E E x h ! e.H z.D X.k f f g E k k g k m Q g k k ! w.n 9.r w w x w w d I L j d d g d w 3 3 6 6 6 j 3 j 6 6 T L ",
"b w r m ! v I E E k E h  .w.n n n b M x m m g m E E k j Q E k I E Q  .b w.h k h m m / U T T 6 d f d f w w 5 g 6 6 6 6 6 6 6 6 j ",
"9.l h x m v k I U / E m !  .W b b l r f m M N ! E Q ~ U ^ I j U U U U Q @./ j U g / O.j j j j k h h r 9 5 d 6 6 6 6 6 6 6 8 L j ",
"N b m m m E U R U v E m M M ! M l p q q e l ! W Q / @.~ ^ T T { ] R $.N._ T T L j I I U U j T h c h 9 9 w d j U 6 8 8 6 6 6 8 6 ",
"x m ! q.k k R R k k f h b h b b n p i 0 0 p l h q.Q ~ ~ ] %.R _ _ R K.K.#.} R Y T T ~ R E ] R m i.q.w r w d U T 6 8 T ^ j j I 6 ",
"x k E Q j U R R E m k ! p b r r b b b p t a p p m X.p.$.$.} ) } } ] #.} _ } Y Y P j @.y.E T R ~ U k w d d d L j 8 L T Q T U 6 6 ",
"m E v k k ^ ] ^ y.q.E x e x c Q Q S.q.b p n a a  .u.@.;._ } } $.#.;.-.) #.<.( ' R k / b.^.v R P T U U k d 8 7 _ %.T j 8 U Q 6 6 ",
"E E Q Q U R ] R m E M b f k v U / A.p.Q Q w...a e.^.V.%._ #.#.} #.<.-.( ' :.+.%.~ Q k /.[.^ R ) #.8 / Q k T P ) Y T I j j s.U Q ",
"m E E ~ ] ] [ ^ E m m  .n ! q.Q s.{ $.@.@.i.i.q.! y.{ } ' -.-.) ) ) _ _ -.:.:.!.G.$.P  .! K ( ' _ P j g j T } #.Y L L 8 j j Q a.",
"c E ^ ^ ] ] @.@./ m m n n e.).d.S.$.;.$.{ y.G.@.m.a.[ } } -.:.' ( ) ( ' &.-.!.CXNX!.) / y.Y ( _ ' R U U 8 L Y ( Y T j j 6 6 j Q ",
"k U Q / ^ / { p.y.^ Q M n Z r.d.s.A.$.>.;.;.m.;.} $.[ %.%.#.-._ ' #.R ( ' ,.uXHXGXuX%.C.%.Y ' } } _ T j L P Y ( R [ j 8 8 I j j ",
"M k.s.{ { ^ y.s.y.R ^ / q. . .y.M.m.@.m.P.Z.Z.Z.$.[ [ $.$.p.;.} #.5X%.) ) -.;XSXNX;X#.;.' Y ) Y Y _ ] ~ R _ Y ' ) R T K L T L L ",
"S k.y.^ { ^ ^ @.p.] ] $.R @.y.p.M.V.@.@.m.Z.Z.Z.I.N.;.m.y.@.$.} ) #._ ) ) ` :.uX,X5.-.` ( } -.) Y Y P T ) ;.( ' ) _ Y L 8 8 R j ",
"Q ^ { $.@.^ U O.a.[ #.;.#.$.M.U.C.m.$.y./ a.a.;.I.5XZ.C.s.j.a.%._ ' #._ ( ) ' 1.W.XX=.&.` -.' _ ' Y P ) ' #.' +.' ( Y L 8 j j L ",
"^ / $.a.$.^ Q / / ~ ;.m.] ;.A.K.Z.Z.Z.i.u.s.y.a.C.I.K.I.F.cXH.;.&.J.P.#._ _ ' 7.kX1X4.,.-.J.#.#.( ( _ _ ) &.:.:.&.' ) _ L R T ^ ",
"/ p.a.m.$.[ { y.@.] $.$.;.>.<.2.2.2.J.;.S.H.S.~.m.N.J.K.I.(.m.#.&.&.,.' | -.J.8XfX3X2.' -.Z.#.' ( ) ' #._ | =.,.:.` ) Y L L P L ",
"p.M.{ $.%.$.y.y.@.$.$.m.N.>.<.<.<.<.<.<.Z.I.A.!.m.K.W.8XL.Z.<.<.' -.,.J.5.>XkXNXNXuXZ.&.:.-._ ) Y Y ) ' &.&.8.P.<.' ' ) P L R T ",
"{ { @.@.] %.@.i.M.@.$.C.A.;.;.<.;.m.m.Z.<.2.J.K.I.,X8XkXdX,XK.J.} :.K.>X*X=XkXSXGXMX,X,X=X&.' _ P Y ( -.,.&.5.-X-.` :.' ( L { R ",
"^ ~ { { [ [ y.H.y.$.a.p.$.$.N.I.$.m.U.A.Z.L.K.K.-X>X8XmXkXyXP.Z.<.J.-X8.7.+X4XVXSXmXfXCXmXW.N.} #._ -.P.*.*.:.P.!.&.&.' -.) 7 L ",
"Q / m.$.$.@.V.E.a.M.m.A.y.F.U.A.M.V.(.I.W.>X,X>X4XyXMXJXAXhX*XJ.-X:X&XK.P.>X<XpXgXkXhXVXVX6X-X} ' ( ( | &.=.5.uXbX2.&.| &.Y K P ",
"Q @.{ $.m.M.V.s.a.!.m.a.S.B.M.V.s.y.M.I.W.:X-X8X8XfXDXJXAXqX<X3X:XK.L.-X-X>X2X2XqXhXdXhXnXMX9X;.#._ ` ,.*.L.9XI.!.,.&.&.&.) Y Y ",
"s.y.i.V.G.A.A.U.m.A.M.m.M.M.F.V.a.@.p.U.,X-X=XwX8XfXBXMXdX0XpXBXtX1X>X4X=X<X<X@X*X8X4X1XfXbX!.-.' | 4.6.8.~.bXP.K.2.*.| ' _ ) ' ",
"h.s.F.(.Q.G.I.I.C.V.M.y.X.y.y.{ m.$.M.U.-X=X=X&X>X>X4X4XiXiXiXzXgX3X3X8X4X2X0X<X&X*X*XL.6X;X<.<.-.&.6.6.6.,.2.,.7.2.7.| ' ,._ } ",
"s.y.s.H.7XE.H.(.H.k.h.y./ / O./ p.$.C.C.5X8X=XXX=X=X<XgXsXiXiXdXdXdXtX8X3XqXqX3X3X<X<X=X,X!.N.<.' =.6. X X X3.&.:.&.7.,.&.-.-.:.",
"X.X.s.S.(.).xXcXxX/.Y.s.y.y./ w.y.p.M.F.bXbX=X&X=X=X1XpXpX%XsXgXmXmXhXgXpXdXdXdXqX8X3X&XL.-XL.8.*X6..X.XoXoX4.,.2.&.5.8.*.&.+.+.",
"y.s.S.S.^.xXGXFXvXxXv.q.{ s.q.w.w.h.B.^.vXuX>X*X>X1X4X3XpXaXjXkXAXVXVXBXmXnXnXnXfXbXbX5X8.2X>X&X<XoX.XoX<X6.5.7.-X*X5.4.,.,.&.,.",
"h.F.p.^.(.xXSXDXNXxXf.d.u.s.w... .w.u.l.7X;X-X-X*X=X4X4XdXlXBXVXVXVXAXCXCXCXCXbX7XNXNX9X2X0XqX1X*X2X#X.X.X6.8.=XmX>X=.=.=.:.,.7.",
"D.F.s._.).eXMXNXFXcX^.xXH.p.k.l.h.g.v.d.H.P.&X-X=X<X4X4XkXAXAXAXAXDXAXCXCXNXcX9XyXbXyX2X$X0XqX2X@X2XoX.X.X.X6.7.=X4.4.=.*.:.7.7.",
"/ y.y.eX^.).cXxXbX7X7X).S.M.).eXD.v.n.z.l.6X,X&X>X3X4XdXMXDXDXHXDXDXDXCXBXkXdXqXpXaXiX%X$X#X#X.X.X.X.X.X.X.X4.=.7.8.4.=.5.:.&.:.",
"^ / / ).).)._.7X9X-XU.I.M.F.Y.v.v.x.b.n.T.uX6XP.3X3X3XyXbXMXDXDXSXFXFXSXBXlXgXiXaXsX0X0X0X%XOXOX#X#XOXOXoXXX8.7.=.=.4.8.8.=X<.<.",
"i.y.y.D.H.H.(.~.,X>X,X~.!.~.T.v.x.t.b.[.^.5XU.U.:X,X8X,XmXAXJXZXNXvX}.cXnXhXdXiXsXsX0X0X$XOX#X$X#X$X2X#X<XXX8.8.6.3.4.3.8.&X7.W.",
"^ / i.S.G.!.~.!.-X;X9X;X;X~.H.T./.e.z.[.).Q.F.F.U.(.uXyXfXmXAXCXNX'.`.[.7XuXdXgXjXjX0X2X$X0XiX0XiX$X#X@X<X@XXXXXoX3.3.4.7.5.:.<.",
"E y.s.M.A.~.5XI.5X9X6X;X;X6XE.F.l.f.v.[._.5XH.l.g.D.nXnX4XgXmXMXcXx.c.7X~.8XhXpXjXzXiXiXaXiXaXiX0X$X2X$X#X<X=XXX6.3.,.-X>XP.-.<.",
"q._.U.M.F.~.;X5X5X(.H.G.(.(.^.F.g.d.f.d.D.B.H.u.w.r.(.9X3XqXkXnX(.d.f.R.H.6XdXpXsXsXiXsXiXiX0XiX$X#X#X#X#X@X&X&X8.,.,.J.P.Z.<.;.",
"h.E.Q.(.~.6X6XuX^.f.v.d.g.T.Y.l.f.r.e.r.f./.^.w.w.D g.U.,XwXqX4X(.D.S.(.(.Q.4XdXpXiXiX0XrXiXiX0X<X<X<X@X@XXX8.8.&X5.,.,.:.-.#.Z.",
"_.(.(.7X(.6X6X9X^.t.z.t.t.f.r.f.t.r.D D x.[.x.0.e.D w.G.!.>X3X3X6X5X5X9X~.5X6X8X1X<X<X0X0X$X0X2XqX*XXXXX=X*X4.4.4.,.,.<.>.] ] { ",
"7X(.T.H.E.~.;X(.H.r.z.t.f.f.g.g.v.r.e.r.z.n.x.r.D ..l.U.U.~.-X>X6X5X~.6X5XQ.(.7XI.7.L.3X<X#X$X<X2X<XXX8.>X,X5.4.=.:.<.>.] U E E ",
"T._.^.S.S.G.!.G.S.d.g.g.k.D.D.D.v.e.e.f.t.e.e.w.G 0.h.E.F.S.F.9XcXD.u.s.S.S.h.^.h.;.Z.*X+X@X@X#X<X<X@XoX*XL.-X&X5.-.<.;.R v h h ",
"^.eX^.h.j.V.I.V.s.u.u.u.k.H.D.Y.t.G e.r.f.0. . .0. .h.G.s.p.S.G.H.i.! S e././.[.xXS.m.<.7.*X@X<XqX@XoXXXL.L.J.J.<.#._ R U m l h ",
"/.T.l.k.D.S.S.M.s.s.h.u.u.l.Y.Y.t.D r.t.....0.0.w.u.j.M.{ @.@.y.p.p.! ..z.].b.^.).F.I.;.-.7.L.XX*XXXXX*XK.<.;.#.;.$.~ U h p p p ",
"/.Y.l.k.h.H.k.F.F.D.D.d.d.r.t.t.r.H F F H H D D  .X.i.$.p.u.S.>.;.M.X.S n.].e.Q { $.m.$.$.;.5.5.,.,.L.K.A.V.V.^ T T E k h q p Z ",
"f.v.g.l.l.Y.Y.k.l.g.v.v.b.z.z./.b.z.A B V V u n b W ^ ] y././.;.} y.Q o.A D  .^ ] $.[ [ $.;.} ;.;.} #.] { p.s.~ U j v m l n n n ",
"t.v.d.l.d.Y.Y.u.d.t.z.z.F C F z.r.H 2 , 2 p p p  .u./ { O.].].p.] ^ E ! m m Q ^ ^ ] ] [ m.m.C.m.$.$.R R y.~ ^ E I k f r q 0 q ; ",
"S r.g.v.f.v.t.t.r.r.H C C V V A A a , 2 t l e p b W Q / / O./ @.] ^ Q W E E ^ ^ Q ! s.@.@.p.p.p.y.y.E I k k k k k k h e i e e ; ",
"S 0.r.t.e.e.e.H D F V B A t i y u 2 , , y l h h r f k Q { { I R R U E E ! i.y./ Q E / / / / X.X.Q ^ E k g k f Q X.e w w b r 9 4 ",
"Z A Z a a s u u u 2 u t t 0 r S a u u , t q r h k m x k U I ^ R I I ^ s.X./ Q Q Q ~ E Q  .W ! w.N M h f w f h h M N n l D N 9 0 ",
"Z A u y y y 2 2 - 2 y 0 < p n n y u t s n p l r b m x Q / T R R R ^ m.$.@.y. .m y.V.y.i./ / ! 9.S n b e w e q q 9.Z s A H u r 9 ",
"A a y a t 1 1 1 : 1 1 0 0 0 0 0 n p 0 p 0 e l r b m k E E j k j L R ] ~ ~ / m ! ! i.s.F.p.^ N A Z p r q S l y t n 0 y z.c.u w 9 ",
"p p y t t 1 1 < : 1 1 1 0 p z q r h w 9 w e w r x E m f h r w j L Y R P T U ! 9.d.t.f.T.D.0.c.].F b w q Z 0 t y 0 p G a u : 9 $ ",
"a p y t 1 : 1 : : : 1 1 0 r m i.! h w w w r r f f m N r e r m U R L L L T ^ / w.d.Z B H t.r.c.}.H p w 9 0 y 1 p : y n p 9 * * & ",
"n n 0 1 t 1 - < 0 : 0 p 0 w E 7Xy.k e e r f h m f M  .q e m q.^ ] R L L T U Q N S a Z Z Z Z V H u 0 9 0 0 0 9 ; : 1 1 0 ; % * & ",
"s y : t : 1 : : 1 0 r 9 0 w w m g h m m h k k x l 0 0 e w k Q I L L T T U E Q N S A Z y 0 9 < 0 y q ; ; 4 ; * # # # $ ; $ * * @ ",
"t 2 1 t - : : 0 0 p p p p r b h h b m m h k k ..v.n p h k f k U I L L / @.Q ! w.S D Z t 1 < * % % * * # & % # @ # * & X ; & &   ",
"- - , 2 , : 1 p p n b 9.9.r M h f b W x h m k S e.l h h c j j j j { k U ^ E T.l.D Z 0 q < ; * @ % # # # @ % * # # X X @ X @ % & ",
"- , - - - - - p y 0 l l b h h h k u.l.l r e x y t 9 r b Q g @.I j j j j k g w. .Z t 1 < ; X # $ * + & & * * * @ * * @ @ #   &   ",
"1 t t t y 1 t 1 : 0 N b h r h h g M S r r e z t.y 3 9 4 w 5 k g g k j U j d w r n p ; * @ @ X 9 @ . % @ @ *     % ; @ # @ < ; + ",
": 1 1 y a y y 1 p p 0 p 0 q l h h f r r < e D x.y 9 3 3 3 3 3 d U Q ^ j j d f r p 0 # # @ . X 9 X @ @ % @ & % @ X & . @ # * @   ",
": i 1 0 1 t : < Z 0 0 < < 1 p p 0 9 r q 9 0 a 1 4 w w 5 5 5 w m ~ g w f w d h 9 9 < @ * &   > r @ ; * @ % % + ; , # t 9 & . @ % ",
"1 y ; ; 0 0 ; y i 1 0 1 q p a 0 : 0 0 0 q p q w 3 3 f 5 d j h r. .h  .q N b e * ; ; # w & # X # o - .     O 0 H '.2 # % X       ",
"1 : ; ; ; : 1 1 : : : 0 0 p ; 0 ; ; : < : S M f w 3 3 O.m g A `.H 0 b q l e 9 4 < &   O @ ; - A B B o . X & # 2 H = o % %       ",
": : # ; : y A 1 1 1 : : : : ; : 0 i ; q p l r 4 w w 5 d m b V '.C 4 e r e w e * < # @ X o o V vX{.2 o X @ # * # o . X   @ . * # ",
": ; ; * ; D v.1 : 1 ; : ; : ; : p 0 0 q 9 q 9 e w d 5 5 3 3 9 u q w r w w r x * < @ @ X G J B ].].- .     # @ X X O #   # @ # & "
};
