/* XPM */
static char *_c5dd663f0cc46e5d7fadf52e40e81dbfsUtnM4h1p3mYWJu[] = {
/* columns rows colors chars-per-pixel */
"64 64 232 2 ",
"   c #020203",
".  c #090504",
"X  c #0D0A07",
"o  c #06050A",
"O  c #08070D",
"+  c #09090D",
"@  c #150F09",
"#  c #15110C",
"$  c #1D170D",
"%  c #090710",
"&  c #0B0A11",
"*  c #121112",
"=  c #24180B",
"-  c #291D11",
";  c #2C2115",
":  c #352917",
">  c #3A2D18",
",  c #3D3319",
"<  c #432E17",
"1  c #44361A",
"2  c #533923",
"3  c #55421B",
"4  c #644E1E",
"5  c #6B521D",
"6  c #594225",
"7  c #44413C",
"8  c #624B24",
"9  c #684C29",
"0  c #795929",
"q  c #735A35",
"w  c #726451",
"e  c #D23807",
"r  c #A5631F",
"t  c #835F2D",
"y  c #805A31",
"u  c #986B29",
"i  c #8A6538",
"p  c #926436",
"a  c #946B34",
"s  c #9A753B",
"d  c #AA7629",
"f  c #AD7230",
"g  c #A67937",
"h  c #DD4907",
"j  c #D7560C",
"k  c #D84F14",
"l  c #D85A16",
"z  c #E54302",
"x  c #EA4503",
"c  c #E64C02",
"v  c #EB4B05",
"b  c #E54B0A",
"n  c #ED4D0A",
"m  c #F24C0B",
"M  c #EB5403",
"N  c #EC5C02",
"B  c #E5570C",
"V  c #EB530C",
"C  c #F15E03",
"Z  c #F2530D",
"A  c #E75B11",
"S  c #DF6719",
"D  c #ED6301",
"F  c #ED6E02",
"G  c #EC640D",
"H  c #F36305",
"J  c #F36905",
"K  c #FE6F03",
"L  c #F3640A",
"P  c #F56C0A",
"I  c #F96C0B",
"U  c #F37303",
"Y  c #FB7D03",
"T  c #F5720D",
"R  c #FA7708",
"E  c #F9720D",
"W  c #E56414",
"Q  c #EA6617",
"!  c #E76C16",
"~  c #ED6D1A",
"^  c #F36513",
"/  c #F36C13",
"(  c #FB6F14",
")  c #F86C1A",
"_  c #EB7718",
"`  c #FA7512",
"'  c #FB7B14",
"]  c #F27918",
"[  c #FB7E1B",
"{  c #DB7622",
"}  c #E96C24",
"|  c #F46D22",
" . c #F86E23",
".. c #EB7324",
"X. c #EA7C25",
"o. c #E37A2C",
"O. c #EA7A29",
"+. c #F57B22",
"@. c #F97B24",
"#. c #F77628",
"$. c #F47F2B",
"%. c #EA7D31",
"&. c #F67E36",
"*. c #F87F3B",
"=. c #A07941",
"-. c #B8832F",
";. c #B58639",
":. c #F88206",
">. c #EE8819",
",. c #FB8414",
"<. c #F78817",
"1. c #FB821B",
"2. c #F59216",
"3. c #F7941A",
"4. c #DC8022",
"5. c #CB8F3E",
"6. c #D0833B",
"7. c #CD953C",
"8. c #DD9A33",
"9. c #D5973C",
"0. c #E88925",
"q. c #EB862C",
"w. c #EC8B2D",
"e. c #F38625",
"r. c #FC8423",
"t. c #FC8B24",
"y. c #F4852A",
"u. c #FA842C",
"i. c #F28D2D",
"p. c #FC8C2C",
"a. c #E9952A",
"s. c #FA9B23",
"d. c #F6972A",
"f. c #EB8433",
"g. c #E58938",
"h. c #F38432",
"j. c #FB8632",
"k. c #FC8A33",
"l. c #F7863A",
"z. c #E89635",
"x. c #F69935",
"c. c #F39B3C",
"v. c #DCA73D",
"b. c #E9A42C",
"n. c #F5A426",
"m. c #F9A623",
"M. c #FBAA22",
"N. c #F5A42D",
"B. c #FBA52C",
"V. c #F4AB2A",
"C. c #FBAA2B",
"Z. c #EBA637",
"A. c #F6A633",
"S. c #FAA432",
"D. c #F4AC34",
"F. c #FBAC33",
"G. c #F6A63C",
"H. c #FBAC3A",
"J. c #F7B136",
"K. c #F9B236",
"L. c #F4B33D",
"P. c #FBB53A",
"I. c #A98140",
"U. c #B68943",
"Y. c #AC8E64",
"T. c #CE8D45",
"R. c #D69C45",
"E. c #EA884A",
"W. c #F48545",
"Q. c #F68C45",
"!. c #F38B4B",
"~. c #ED9D47",
"^. c #F79945",
"/. c #F4924E",
"(. c #F28E53",
"). c #EE9354",
"_. c #EE9C5C",
"`. c #F19159",
"'. c #F49759",
"]. c #D2A544",
"[. c #EAA948",
"{. c #F8A846",
"}. c #FAAE44",
"|. c #EEB14A",
" X c #F6B342",
".X c #F8B748",
"XX c #F3A657",
"oX c #EAB358",
"OX c #F7B855",
"+X c #F6B95C",
"@X c #ED9D6D",
"#X c #F19760",
"$X c #F49A66",
"%X c #F29E6B",
"&X c #F39E73",
"*X c #EDA86C",
"=X c #F4A967",
"-X c #F4B466",
";X c #FBBE65",
":X c #F0AF72",
">X c #F2B170",
",X c #F5BB70",
"<X c #F9C64A",
"1X c #FBC24C",
"2X c #F5C355",
"3X c #F9C756",
"4X c #F4C35D",
"5X c #FBC35E",
"6X c #FBCF5F",
"7X c #FBD25E",
"8X c #F7C366",
"9X c #FBCC64",
"0X c #F9C969",
"qX c #FAD465",
"wX c #F7D56B",
"eX c #FBD46C",
"rX c #F9D96B",
"tX c #FCDB6E",
"yX c #ECC479",
"uX c #FBCC73",
"iX c #F9C87A",
"pX c #F9D175",
"aX c #F7B890",
"sX c #F9C682",
"dX c #E9CB9C",
"fX c #F9D690",
"gX c #F6DF92",
"hX c #F8E28A",
"jX c #FDD7A0",
"kX c #FEE0AC",
"lX c #FBE9BD",
"zX c #FCDCC6",
/* pixels */
"                  o o o o o       o   o o o + O o     o + + + + & & O o     o o o o O + O o o o o o             o o o o o o o   ",
"        o o       o o o o o o o o o o o o o O O o o   o + + + + + O O o o o o o o o O o o o o o o o o         o o o o o o o o   ",
"o o o o o o o o     o o o             o o o o o o o o o + + + + O O o o o o O O O O o o o o o o o o o o o o o o o o o o o o   o ",
"o o o o o o o o o                           o o o o o o O + + + + O o o O O O O O O o o o o o o O o o o o o o o o o o o o o   o ",
"o o o o o o o o                                 o o O O O O O O + + O O O O + + + + O O o o o o O o o o o o o o o o o o o       ",
"o o o o o o o o                                 o O O O O o O O + + O O O O O O O + + O o o o o O + o o o o o o o o o o o       ",
"o o o o o o o o                                 o O + + O O O O + + O O O O o o O O + + o o o o o + o o o o o o O o o o o o o o ",
"o o o o o o o                                     O + + O O O O + + O O + + o o o O + + O o o o O O o o o o o o O O o o o o o o ",
"o o o o o o o                                     + + + + + + + O O + + & & + O O O + + O O O O O O o o     o o o O O o o o o o ",
"o o o o o o o                                     o + + + + + + O O + & & & & + O O + + + + + + + O o o     o o o O O O O O O O ",
"o o o o o o o                                     o O + + & & & O O + & & & & & & + O O O + & & + O o o o o o o o o O o O O O O ",
"o o o o o o o                                       O O & & & & O O + & & & & & & + O O O + & & + O o o o o o o o o o o o o o o ",
"o o o o o o o                                       O O & & & & + O O % O + & & & + o o o O + + + + O o o o o o o o o o o o o o ",
"o o o o o o o                                     o O O & & & & & % & & O O + + + + o o o O O O + + O O o o o o o o o o o o o o ",
"o o o o o o o                                     O O & & & & & & & & & O O O O + O o o O O o o + + + + O o o o o o o o o o o o ",
"o o o o o o +                                     & & & & & & & & & & & O O O % + O O + + + O O + + + + O o o o o o o o o o o o ",
"o o o o o o o o                                 o o X - 6 0 =.I.g p 8 1 # o o                   + + O O O o o o o O O O o o o o ",
"o o o o o o o o                                 # 8 U.-X8X4X0X0XJ.C.C.D.9.a > .                 + + O O O O o o O O O O o o o o ",
"o o o o o o o o o                           . 6 R.|.;XXXo.q.OX9XL.H..X+X5X8X-XY.7               + + + + + O O O O O o o o o o o ",
"+ + + + o o o o o O o                     # s b.A.~.{ } } ..f.^.}.;XiXsXiXsX>XsXdXw o           & & + + + + O O O O o o o o O O ",
"* * + + o o O + + + + + o               = ;.C.A.4XpXg...E.%X(.%./._.XX=X=X@X%X*X,XyXq O o       & & + + + + + + + O O o o o O O ",
"* * + o o o + + + + + + + + + + o . o $ ;.F.c.uXwX9Xq.#.&XzXaX(._.$X!.W.`.'.$X&X*X>XoX4         & & + + + + + + + + O O o o O O ",
"& & + o o o + + + + o o O + & & .   . g S.z.oXrXeXz.#.#.'.aX:XW.!./.*.*.Q.!.(.#X%X@X-X[.2       + & + + + + + + + + + O o o O O ",
"+ + + o o o + + + + o o + + & &     9 y.W ! +X9Xc.| |  .h.Q.Q.u.u.j.@.@.&.l.W.(.`.:X>X}.7.$     + & + + + + + + + + + O o o O O ",
"+ + + + o o + + & + + + + & & &   = T.G ^ W .... .| #.k.k.j.k.i.y.@.1.r.j.&.*.W.).fXgX|.D.t   o + + & & & & + + + O O O o o O O ",
"+ + o + + + + + & & + + + + + + o 0 ..} _ c.~ | #.$.k.k.p.p.t.t.[ 1.1.r.u.$.&.*.(.gXhX0XN.8.-   + + & & & & + + O O O O o o O + ",
"o o o o + + + + + + + + o o o + # 6.! ~ |.5X~ ) @.u.p.p.p.p.t.t.1.1.1.1.r.y.u.*.).sXhXeXb.C.q   + & & & & & + O O O O O O O O + ",
"o o o o + + + + + + & + o o o O 1 G._ f.eX.X^ ) u.p.p.p.t.t.t.<.<.1.1.1.r.@.u.l.=X*XpXeX0.A.T.X + & & & & + O O O O + O O O + + ",
"o o   o o + + + + & & + + O + + i F.X.OXrXw.^ ) u.p.t.t.t.1.1.1.<.1.1.1.r.@.u.l.'./.o.X.j S.G.= + + + + + O O O + + + + O O + + ",
"o o o o + + O + + + + + + + + + d F.0.9XqXw./ ( r.r.r.1.1.' ' ' ' ,.' ' [ ] j.Q.Q.e.B W B d.A.3 + + O O O O O + + & + + O O O + ",
"o O + + + + o o O O o O + + O o d B.q.tX3Xi./ ( 1.1.1.' ' ' ' P T E ' ' ' 1.u.u.] d.i.} A a.A.5 + O O O + + + & & + + O o o O O ",
"o + & & + + o o o o o O + + O o -.S.w.tX2Xe./ ( [ [ ' ' ` ` ^ b Z P E E ' ` ' R R J.Z...W >.A.0 + O O O + + & & & + + O o o O + ",
"o + + + + + O o o O O O + + + + f X.q.tX2X] P I ' ' ' ` ` ` B e z I I I J K U U U >./ X.~ e.B.0 & & & & % O O + & & + + o o + + ",
"o o o + + + O O + + + + + + + + r Q f.wX4XL J I ` ` ' T T T G h h ( E I J H J F F _ V w.W i.C.5 + & & & & % O O & & & & O O + + ",
"o o o + + + + & & & & & & + + O u W { eX6X! J L L E E P P P P P P ` E J D D D D D _ b x.l x.N.8 O O & & & & O O & & & & + O + + ",
"o o o + + & & & & & & & & + + + p S l 5XqX0.J M M C C C H L N M C N N N C N M M G Q j {.l n.D.; O O % & & & O O & & & & + + + + ",
"o o + + & & + + O o o O + & & & 9 } j [.qX{.P M c c c c v M M M M c c c c c x M +.k X.z.%.V.8.@ O O O O O O O O + + + + O + & & ",
"o o + + & & + O o o o o O + & & $ g.j f.qX9X>.J h x v v x z x v v x x x V V m W x.{ G.4.c.B.u o O O O O O O O O O O O O O O & & ",
"+ + + + + + o o o o o o O + + & o s { f.oX7XL.Y J c n n v x z z z z x m v z W x.F.H.H.a.S.D.>   O O O O & & O O O O O O O O + + ",
"+ + + + o o O o O O + + O O O + . > Z.0.z.8XqXn.Y J M z z z z z z v Z n h W x.F.F.C.A.N.F.g o . O O O & & & O O O O O O O O O + ",
"o o o o o o o o + + & & + O o O . O s S.n.D.9X3X2.Y K H M x x v n v v A y.H.H.F.F.F.B.n.b.:   o O O % & & & O O o o O O O O O O ",
"o o o o o o o o + + & + + O o o     - R.m.S.D.qX1X2.:.:.R T J H J B h S H.F. X1XK.A.C.V.t   o   & & & & & & O O o o O O o o + O ",
"o o o o o o o o o O o o O O + +     o , z.C.m.H.2X<X3.,.s.e.X.O.%.O.c.H.H.P.7X6X.XC.C.g X o     & & & & & O O O O o o o o o + + ",
"o o o o o o o o o o o o o o O +         < v.B.B.D.D.3.:.3.B..XuXiXOXP.C.B.1X7X1XF.A.g *         & & & & + O O O O O o o o o + + ",
"o o o o o o o o o o o o o o o o           < 5.m.M.F.B.s.s.n.+XkXlXuX XP.F.L..XD.N.a X o         + O & & + + O o O O + O o o o O ",
"o o o o o o o o o o o o o o o o o           $ a G.V.P.P.J. XOXjXkX;X}.F.C.C.M.7.6 .             O O & & + + o o O + + O o o o o ",
"o + + + o o o o o o o o + + + + o           o O < d z. X1X<XD.OXOXH.C.C.n.9.y @                 O O + + O o o o O O O o o o o o ",
"o + + + + o o o o o o + + + + + o             o   X ; 8 f 7.8.OX+X].;.i 2 @ o   o               O O + O O O o o O O o o o o o o ",
"o o o o o o o o o o o o o o o o o + & & + + O O + & + + + + + + + + & & + O O O & & & & & + O o O + & & & + o o o o o o o o O O ",
"o o o o o o o o o o o o o o o o o o + + + + O + & & & & & & & + + + & + + O O O + & & & & & O O O + & & & + o o o o o o o O + O ",
"o o o o o o o o o o o o o o o o o + + + + O O + + & & & & & & & + + O O O O + + O O o O + + O O + & & & + O O o o o O O O O O o ",
"o o o o o o o o o o o o o o o o o O + + O O O + + & & & & + & + + + + + + + + + O O O O + + O O + & & + + O + O o o O + + + O O ",
"o o o o o o + + o o o o o o o o o o + + + + + + + + + + + + + + O + & & & + + + + + & & & + O O + + + + + + & + o o O O + + + O ",
"o o o O o o + + o o o o o o o o o o O + + + + + + + + O O O + + O O & & & + + + & & & & & + O O + + O O O + + + O o O O + + O o ",
"o O + o o o + + o o o o o o o o o o o O + + + + + O O O O O + + O O + & O O O + & & & & & + O + + + o o o o O O O O O O + O o o ",
"o O + o o o o + o o o o o o X o o o o o O + + + + O O O O O + + O O + + O O O + + & & & + + + + + + o o o o o O + + O O O o o o ",
"o o o o o o o o o o o o o o o o o o o o o O O + + O O O O + + + + + + + O O O O o o + & & + + + + + O O O O O O & & + O o o o o ",
"o o o o o   o o o o o o   . o o o o o o O O O O O O O O + + + + & & + + + O O o     O & & & + + + + + + + + + + & & O o o o o o ",
"o o o o o   o o o o o o   . o o o o o O + + O o O O O O + & + + & & & & & + O o   o + & & & + O O O & & & & & & & + O o o o + O ",
"o o O o o   o o o o o o o o o o O O O + + + + O O O O O + & + + & & & & & + O o o O + & + + + O O O & & + + & & + O O o   o + + ",
"o o O O o   o o o o o X o X X o O O + + & & + O O o O O + + + + + + + + + O O O + & + + O O O + + + + O o O + + O O O o   o o o ",
"o o o o   o o o o o o X o X X o o O + + & & + + O O O + + + + O O O O O O O O O + + + O o o + + + + O O o o O O O O O o o o o o ",
"o o o     o o o o o o o o o X o o o O + + + + + O O & & & + O o o o o o O + O O O O O O O + & & & + O o O O O O O O o o o o o   ",
"o o o     o o o o o o X o o o o o o O + + + + + + + & & & + O o o o   o + + O O O O o O + + & & & & O o O O O O + O o o O o o   "
};
