/* XPM */
static char *_b8c0de9260f4af6ee42fbafaba7485c6vbYoEjGArcZv1Y2[] = {
/* columns rows colors chars-per-pixel */
"64 64 255 2 ",
"   c #010101",
".  c #0B0302",
"X  c #0B0805",
"o  c #050409",
"O  c #0C0608",
"+  c #090A08",
"@  c #130403",
"#  c #1B0504",
"$  c #150905",
"%  c #1C0906",
"&  c #160709",
"*  c #1D0B0A",
"=  c #171511",
"-  c #230503",
";  c #280605",
":  c #240A05",
">  c #2C0B05",
",  c #240C0A",
"<  c #2B0D0B",
"1  c #330B06",
"2  c #3B0C05",
"3  c #350A08",
"4  c #320D0A",
"5  c #29120A",
"6  c #2C110C",
"7  c #34120B",
"8  c #3C1609",
"9  c #3C130C",
"0  c #281311",
"q  c #391512",
"w  c #2B291E",
"e  c #332A25",
"r  c #3E392C",
"t  c #450E07",
"y  c #510C04",
"u  c #441207",
"i  c #4B1303",
"p  c #44140B",
"a  c #4B150A",
"s  c #42190D",
"d  c #4B1A0B",
"f  c #581606",
"g  c #52160C",
"h  c #541B0C",
"j  c #5C1C0B",
"k  c #4C1611",
"l  c #451A13",
"z  c #461A14",
"x  c #4C1A13",
"c  c #541B13",
"v  c #521916",
"b  c #5C1D14",
"n  c #671805",
"m  c #631C05",
"M  c #641D0B",
"N  c #6B1E0A",
"B  c #751D08",
"V  c #671D11",
"C  c #59230C",
"Z  c #4D2214",
"A  c #5A2313",
"S  c #572318",
"D  c #6A2406",
"F  c #63210C",
"G  c #6B220C",
"H  c #7D2205",
"J  c #74230C",
"K  c #7B230B",
"L  c #792909",
"P  c #622313",
"I  c #692315",
"U  c #782812",
"Y  c #443A30",
"T  c #444437",
"R  c #665E4E",
"E  c #6D6652",
"W  c #801F07",
"Q  c #83230A",
"!  c #8A2509",
"~  c #872808",
"^  c #8B2A0B",
"/  c #972B0A",
"(  c #96370A",
")  c #9C330C",
"_  c #842A11",
"`  c #922D12",
"'  c #8D3312",
"]  c #983312",
"[  c #A42E0B",
"{  c #A5340B",
"}  c #AD350B",
"|  c #AC3809",
" . c #B63809",
".. c #BC3B0C",
"X. c #A73412",
"o. c #AC3A11",
"O. c #B83B12",
"+. c #C23B09",
"@. c #CC3D09",
"#. c #D13C09",
"$. c #C13B10",
"%. c #B9440E",
"&. c #BF5615",
"*. c #C54308",
"=. c #CD430B",
"-. c #CC4A0A",
";. c #D24906",
":. c #D74709",
">. c #D3460C",
",. c #DD4B0B",
"<. c #D75307",
"1. c #DB530C",
"2. c #DD5C0D",
"3. c #C64613",
"4. c #CC4412",
"5. c #D64C13",
"6. c #DC5715",
"7. c #E44B09",
"8. c #E3550D",
"9. c #EC570F",
"0. c #E75A09",
"q. c #E45B0D",
"w. c #E85610",
"e. c #E35D12",
"r. c #D96316",
"t. c #D86D12",
"y. c #E8680C",
"u. c #E66815",
"i. c #EC6B14",
"p. c #EB6B19",
"a. c #F16914",
"s. c #EC741A",
"d. c #E87818",
"f. c #F2781A",
"g. c #DD7B29",
"h. c #E57623",
"j. c #F17521",
"k. c #F37C23",
"l. c #827A64",
"z. c #EC851C",
"x. c #F5891C",
"c. c #F1981F",
"v. c #DF8320",
"b. c #E98825",
"n. c #F38424",
"m. c #F58D23",
"M. c #F98825",
"N. c #F48D29",
"B. c #EA932B",
"V. c #EA9729",
"C. c #F3932C",
"Z. c #F4992C",
"A. c #ED8935",
"S. c #ED9C33",
"D. c #E89936",
"F. c #F39D33",
"G. c #F79A34",
"H. c #DEA33B",
"J. c #E7A237",
"K. c #EBA13C",
"L. c #F3A539",
"P. c #EAB03F",
"I. c #9C927A",
"U. c #EB9942",
"Y. c #DBB054",
"T. c #E7A647",
"R. c #EBAC4B",
"E. c #ECB24B",
"W. c #F3B44B",
"Q. c #F8B34F",
"!. c #EEAD51",
"~. c #E7B658",
"^. c #EBBC5B",
"/. c #F4B856",
"(. c #DCBA64",
"). c #E9BD64",
"_. c #F4BC64",
"`. c #E8C55F",
"'. c #F4CB56",
"]. c #EBC667",
"[. c #EBCA6A",
"{. c #F3C764",
"}. c #F3C56C",
"|. c #F5CB6C",
" X c #EDD269",
".X c #F5D769",
"XX c #F4D36C",
"oX c #ECCD73",
"OX c #ECCA77",
"+X c #F3CE72",
"@X c #F5C874",
"#X c #F3CE7C",
"$X c #EED375",
"%X c #EDD37C",
"&X c #ECDA7A",
"*X c #F4D474",
"=X c #F9D473",
"-X c #F5DA74",
";X c #FADD74",
":X c #F4D47B",
">X c #F9D57B",
",X c #F4DA7C",
"<X c #FADD7B",
"1X c #FBE36C",
"2X c #F7E376",
"3X c #9C9882",
"4X c #B7AB8A",
"5X c #C4B699",
"6X c #C5BFA0",
"7X c #D6CA9A",
"8X c #EDD583",
"9X c #EEDA83",
"0X c #F4D684",
"qX c #F8D585",
"wX c #F4DB83",
"eX c #F9DC85",
"rX c #F3D389",
"tX c #F4DD8A",
"yX c #FADC8C",
"uX c #EBDB99",
"iX c #F4DD92",
"pX c #F9DD93",
"aX c #F7E385",
"sX c #FAE284",
"dX c #F5E28C",
"fX c #FAE48C",
"gX c #ECE29E",
"hX c #F5E394",
"jX c #FBE495",
"kX c #F5E39B",
"lX c #FAE59B",
"zX c #F9E999",
"xX c #CBC7A9",
"cX c #DAD2AB",
"vX c #E8D8A6",
"bX c #F4DEB4",
"nX c #EFE4AE",
"mX c #F3E4A4",
"MX c #FBE5A3",
"NX c #F6EAA4",
"BX c #FAEBA4",
"VX c #F3E4AA",
"CX c #F6E9AB",
"ZX c #FBEDAA",
"AX c #FCF0A4",
"SX c #ECE3BA",
"DX c #F6EAB6",
"FX c #FBEDB4",
"GX c #F5EDBB",
"HX c #FDF2B6",
"JX c #FCF1BE",
"KX c #F6EDC2",
"LX c #F9EEC2",
"PX c #FCF2C3",
"IX c #FDF3CB",
/* pixels */
"                                                                                                                                ",
"                                                                                                                                ",
"                                                                                                                                ",
"                                                                                                                                ",
"                                                                                                                                ",
"                                          o                       .                                                             ",
"                                          o                   . . . .                                                           ",
"                                                            . @ # # # .                                                         ",
"                                                      . . % , 6 q q , .                                                         ",
"                                    . . @ . .     . @ : 7 z p p k 9 4 : : % $ & $ & . . . o o                                   ",
"                                  . @ * $ & & @ & * 5 q 9 2 2 x v k d b S x 1 > 4 4 , * $ .                                     ",
"                                . @ 0 , # # ; 9 x z 7 4 9 8 7 7 2 g m N J G j h g g p 7 5 % O .                                 ",
"                              . @ , 6 - - 3 a P j y f I G G G J K ^ { { ) ` _ J G V h p 7 : @                                   ",
"                        o . . & , 6 > 2 k g F J n H ] X.[ } ..4.5.5.>.#.+.[ ! B B J G j a 9 : @ .                               ",
"                          . & 0 , ; d j n _ ` ^ / O.....=.<.2.2.r.u.6.>.=.+...} [ / ! J M a 2 , * O                             ",
"                          @ , < - 8 A n Q X.}  .*.>.:.1.u.d.d.n.k.p.8.1.,.:.;.-.4.$.} / K G a > # @                             ",
"                  o   . O & # - 9 P N ! } +.=.6.8.9.9.e.b.L.S.C.s.y.j.k.s.u.2.1.6.>.@.} ) K F 9 : @ .                           ",
"                  o . @ & @ # 2 F U ^ | +.;.p.s.i.i.h.U./.'.L.Z.Z.S.L.S.B.C.N.f.u.e.;...| / K b 9 - # @                         ",
"                    @ , - > p m ~ X. .*.;.i.b.b.b.v.!.*X{.R.U.T.^.].|.].).!.L.F.m.x.p.6.-. .{ Q M p ; # . .                     ",
"                  . - 9 1 a F ~ { ..@.<.y.m.Z.S.D.^. X`.Y.~.).:XeXwXwXzXtX}./.L.c.x.f.s.u.1.*.} H f p 4 * . .   o               ",
"                  @ 2 g a M K { +.>.8.f.N.Z.F.D.{.*X~.^.{.2X2X;X=X|.oXtX8XOX~.H.V.Z.N.d.i.a.q.5.{ H j d > # . .                 ",
"                . - g V j J /  .5.e.f.C.B.D.H.^.fX0X>X=X*X,X&XoX+X#XrXMXMXpXrX].Y.T.S.B.b.d.i.w.*.! D j u > # .                 ",
"              o . > V U M _ { =.8.j.C.V.K.R.^.wXjXiX9X$X$X>X>X-X-X,XdXlXkXlXBXAXlX=XE.P.J.m.f.0.6.| Q m j 2 > @                 ",
"                @ 2 P I m ' } =.2.C.S.D.}.%X%XhXyXqX X X.X<X<X;X2X2X-X:X*X+XwXzXNXiX@X{.^.K.m.a.8.4./ K I d 6 $ .               ",
"                : d c j D ]  .=.u.F.S.R.qX8XBXlXwX;X{.].,XfXjXfXfXsX<X<X|.{. X&XzXBX0XoX$X^.G.f.q.5.O.Q N d 6 X                 ",
"              . 7 S a f L { @.,.p.G.J.^.:XhXlXtX-X.X XwXMXZXZXBXZXAXzXhX0X[..XXX$X0X#X(.oX*XW.B.h.-.O.` n t - .                 ",
"              . 9 c t N '  .:.7.p.L.R.}.#XdX&X*X.X X,XlXHXFXVXmXVXCXCXNXlXwX[.XXXX[.*X0X].~./.J.n.1.+.X.B i -                   ",
"              . 4 x y _ o.@.8.q.d.L.~.#X#XeX.X1X-XaXhXBXCXVXbXbXGXLXJXCXNXBXjX>XXX{.[.tXqX~.J.L.n.0.#.} ^ j 4 .                 ",
"                # s j ] ..:.u.a.d.W.`.qXqX,X.X1XaXjXZXmXuX7XI.E E I.cXGXFXFXFXMX,X X].:XyX:XE.J.N.y.8.+.) m l &                 ",
"                @ 8 M X.@.8.u.f.d.W.{.qXqXeXeXfXdXhXBXvX4XY = + X = r 4XGXLXIXJXhX-XXX[.dX:X`.D.G.s.0.-.{ B a 0 .               ",
"              . % 8 M X.#.7.y.C.b.W.=X,XwXsXMXFXNXNXCX5Xe o o o o o . w 6XPXIXIXHXtX>X*X9X9X>XE.B.f.<.-.| K g q &               ",
"              @ 7 8 M X.=.9.y.L.D./.=X,XwXsXZXIXDXCXnXR .         o     E PXPXIXPXkX:X,XtXiXlX).b.s.8.-.} H h 4 %               ",
"              @ 9 S j X.@.p.d.R.T.T.>X,X,X-XlXPXGXmXvXY o               r vXPXLXPXBX:X,XpXkXBX}.b.y.7.*.} H j > 5               ",
"              @ 4 S m / @.u.b.R.].Y.%X%X-X.XeXHXKXgX7Xe o         o     e cXPXDXJXBXwX:XyXpXjX}.b.q.:.+.} W b 4 0               ",
"            . % 1 b G ! @.t.B.~.eXOX%X%X*XXX;XZXLXgXvXY o             . Y SXGXnXFXlXeX*X>XfXoXW.x.y.:...} B V 7 ,               ",
"            . 6 9 h U ) =.r.F.~.yXjXtX%X$X-X;XlXPXCXVXl.X o       o . X l.JXFXVXBXdX<XXX[.wX~.J.x.y.,.+.o.K b 4 @               ",
"            @ < S u J } =.2.C.{.qXjXhX9X,X<X;XyXFXJXVX7XT .         . T cXDXZXNXzXwX-XXX+X0X).D.x.s.>...{ K h > .               ",
"            O : S h m ] 4.8.d./.+X9X8X8XwX*XXX*XiXJXGXDXxXR = + + = R xXGXCXBXBXlX%X*X*XwXyX_.A.n.k.>. .` F d -                 ",
"            . # p C F ^ 3.1.u.K.{.=X:X0XqX=XXX-X:XkXHXPXKXSX6XI.3XxXSXGXCXhXzXAXiX8XeXwXiXqX!.d.k.j.;.} H f x -                 ",
"              @ > s g B o.>.q.K.^./.@XqXfXeX<X<X;X-XtXMXFXFXJXKXKXKXFXNXdXsXjXzX9XkXlXwX%X=XD.t.f.i.;.) m i v -                 ",
"              . % < p V / 4.:.h./.}.~.}.sXfX,X*X;X2X2XsXfXhXkXmXmXFXBXdX<X;XjXyXwXMXMXwX].W.Z.y.a.q.*.! f i v -                 ",
"              . . , 3 P ^ ..>.1.A._.].~.).OX$X<X$X,X2X;X2X2XfXjXzXhXwX,XXX.X<XwXpXjX8XqX~.S.m.y.0.-. .B f h v #                 ",
"              . . * > g K [ 4.=.1.h.!.*XoX#XsXsXfXfXwX[.'..X-XeXtXtX:X].XX;X.XeXiXqX8XqXD.b.n.2.<. .) m h C d @                 ",
"              . @ - 1 p F ^  .=.,.8.p.R.>XdXtXdXtXfX<X XXX-X<XfXtXyX,XXX=X<X,XwX#X:X0X}.b.n.f.<.*.{ ~ f h h 2 .                 ",
"            . X @ , 9 d M K ) } 5.u.a.k.T.%XkXkXtX,X$X*X,X<X>X:XwXqXwX>XoX&XfX:X].~.|.R.d.f.u.*.{ ' N f h p ;   o               ",
"              X X # 4 x P M G L ) r.M.m.S.E.OXtX:XoX[.OXwXeX$X%X%X%XdXtX%XdXwX+XT.R./.b.y.9.1.| K I t i u > .                   ",
"                + & # 4 t k t i D ( r.b.S.W.}.qXqX#X#X8XhXzXtXiXpXrXrXrX8X,X_.U.B.W.T.t.0.8...~ M c 2 d > #                     ",
"                o O * < 4 9 s 2 i D ( &.h.G.K.T.~._.=XeXhXtXtXyXpXyX#X@X+X/.D.B.R.Q.h.<.,.$.` n P u s 8 # @                     ",
"                  . @ < 7 > 1 d j N ` } -.y.f.n.b.B.D.K.T.R.R././.T.D.S.F.C.B.K.Q.g.5.#...^ f b c p Z : .                       ",
"                . . @ @ 6 6 > a M G B ) ..;.e.s.m.Z.Z.F.G.G.N.N.d.t.d.z.d.z.B.A.h.3.O.o.' D d k g b 7 .                         ",
"                      . @ % : l A C M U ] o.3.5.r.p.s.i.i.a.0.0.0.e.q.w.p.b.k.6.%.) ' U U F d h b q @       . .                 ",
"                    o o . . . - p S p u j J _ / ) | *.;.7.7.7.7.7.:.7.7.8.1.6.O._ P h M I A 2 S 9 @ o                           ",
"                        o   X * 4 z v k 1 > p F L ( { ..:.,.7.,.,.>.>.>.5.3.] V t p P G c 3 4 7 @                               ",
"                          o   . @ : 2 k S S j D L L ^ ) o.o.%.%.o.| o.o./ Q n f j A A l ; - - @ .                               ",
"                            o o o . % 7 x b M m G N M f f n B J K J N J N j m J G t 4 # @ # & . .                               ",
"                              . o . . % 4 p g j P M M j j A b g t t t d a h b a 3 3 : # @ X .   .                               ",
"                              . .     . . # : 7 9 a g C C s 1 - ; 4 9 l Z l > : * , # .                                         ",
"                                    o o     . @ : 4 4 > - # # # 6 6 < > : % $ X o .                                             ",
"                                    . o o o o . . @ . . o . . + O . . @ . .   .                                                 ",
"                                                    .             .       o o .                                                 ",
"                                                                          o                                                     ",
"                                                                                                                                ",
"                                                                                                                                ",
"                                o     o o o o o o           o     o   o   o o   o     o               o o                       "
};
