/* XPM */
static char *_94966b9869d46e8a95998eb5a930fe0PoLUNpoOoGUgsq4H[] = {
/* columns rows colors chars-per-pixel */
"64 64 145 2 ",
"   c #020202",
".  c #0A0604",
"X  c #070906",
"o  c #0B0907",
"O  c #050608",
"+  c #0D0B0A",
"@  c #120E0B",
"#  c #14110E",
"$  c #19130F",
"%  c #0D0F12",
"&  c #151312",
"*  c #1A1613",
"=  c #1C1916",
"-  c #1D1C1A",
";  c #231B15",
":  c #291F17",
">  c #231E1B",
",  c #291F18",
"<  c #25211C",
"1  c #2C241D",
"2  c #31261E",
"3  c #262321",
"4  c #2C2622",
"5  c #2D2924",
"6  c #2F2C2B",
"7  c #322722",
"8  c #332B23",
"9  c #3A2D25",
"0  c #332E2A",
"q  c #3C2F29",
"w  c #3F3024",
"e  c #36322C",
"r  c #3C342D",
"t  c #3C382F",
"y  c #353331",
"u  c #3B3631",
"i  c #3E3A34",
"p  c #3E3E3A",
"a  c #422F26",
"s  c #43352C",
"d  c #44392F",
"f  c #493A2F",
"g  c #413632",
"h  c #433B34",
"j  c #4A3D34",
"k  c #433E39",
"l  c #4A3F39",
"z  c #454337",
"x  c #4C4136",
"c  c #46413A",
"v  c #4B443D",
"b  c #4E493F",
"n  c #524134",
"m  c #53453B",
"M  c #58473C",
"N  c #54493E",
"B  c #5A493D",
"V  c #614D3D",
"C  c #464340",
"Z  c #4B4641",
"A  c #4E4942",
"S  c #4B4A4A",
"D  c #544643",
"F  c #594643",
"G  c #524C44",
"H  c #5A4D43",
"J  c #544F49",
"K  c #5B4E48",
"L  c #555147",
"P  c #5C5145",
"I  c #55514A",
"U  c #5A544C",
"Y  c #5E584E",
"T  c #575552",
"R  c #5B5651",
"E  c #5E5952",
"W  c #5F5D58",
"Q  c #614F44",
"!  c #645246",
"~  c #63554A",
"^  c #60594F",
"/  c #615550",
"(  c #625D54",
")  c #6B5C52",
"_  c #635F59",
"`  c #666156",
"'  c #696157",
"]  c #66615B",
"[  c #6A645C",
"{  c #6E695E",
"}  c #71665B",
"|  c #71695E",
" . c #666561",
".. c #6B6660",
"X. c #6E6963",
"o. c #6E6C69",
"O. c #736D64",
"+. c #796E64",
"@. c #736F69",
"#. c #767066",
"$. c #787166",
"%. c #76716A",
"&. c #7B746B",
"*. c #7E786E",
"=. c #7B7671",
"-. c #7E7973",
";. c #82776E",
":. c #817A6E",
">. c #827C74",
",. c #837E79",
"<. c #868075",
"1. c #868076",
"2. c #898277",
"3. c #86817B",
"4. c #87837E",
"5. c #8A847C",
"6. c #8A867F",
"7. c #8E887E",
"8. c #8B8781",
"9. c #8D8983",
"0. c #8E8A84",
"q. c #8F8C88",
"w. c #918B82",
"e. c #928D88",
"r. c #95928C",
"t. c #96928D",
"y. c #98948D",
"u. c #99948D",
"i. c #9B9491",
"p. c #9D9992",
"a. c #9B9A94",
"s. c #9F9B95",
"d. c #A09B95",
"f. c #A09D97",
"g. c #A19D98",
"h. c #A49E98",
"j. c #A3A099",
"k. c #A5A19A",
"l. c #A5A39D",
"z. c #A9A19B",
"x. c #A8A49D",
"c. c #ADA9A1",
"v. c #AFABA5",
"b. c #B1ADA8",
"n. c #BDB9B4",
/* pixels */
"p.s.f.f.k.k.j.k.f.f.d.y.y.y.y.p.x.k.h.z.x.a.l.s.i.g.i.e.e.9.6.y.x.x.c.f.b.l.r.f.p.l.r.r.i.e.8.r.8.y.e.0.,.8.3.8.8.r.e.s.l.c.v.y.",
"{ O.&.O.&.&.%.%.&.*.&.| { { U ` >.&.>.O.[ X.@._ ( ] { b v c G [ ` { O.{ O.&.O.[ ] O.' ] ( ' ( Y U U ( v U R I U U G A -.>.{ O.( ",
"{ O.>.&.*.*.&.%.>.>.O.O.' ' ' O.O.{ O.[ U L A A i h c c h h A G G G U L I ] [ ] ( { >.@.( Y ( ( O.( G ( J _ I I -.%.{ &.%.{ ` Y ",
"` ' O.#.&.*.>.&.>.&.O.{ ' ( ( { O.$.( z b U i i e i e 5 < = = * - 4 6 e k v I G I [ O.O.] ( U I ` O.I G ] ] ] O.3.>.&.&.O.Y ( ( ",
"{ %.O.%.O.%.*.*.>.1.#.{ ' { | ' { ( b h v K U 9 @ + o o o + @ + @ + + + @ & 3 0 i A [ -.&.X.( A ( O.[ I =.@.A ( O.-.&.O.` { O.O.",
"[ O.O.>.&.#.O.O.O.&.{ O.' | O.( ( L b Y H F F 4 = 4 5 - = = * & * * * * = * + o + > h G A G X.U ` [ ] c v A c c v ( =.%.Y O.>.>.",
"' { O.2.&.$.%.$.| | } | } | I [ A c G H m m l 9 - # o               O     + + + + + . = t ( #.O.O.&.%.Z Z G U v t r Y ( ( U ' #.",
"' ( O.O.{ %.%.&.+.} O.[ | | Y G h < 4 D g > @ .                       O           + @ . o 4 Z h Y | ` ( A v L ( c z I I v h v U ",
"( Y ' ` #.O.O.$.O.| $.&.I I v 9 * 5 i 3 o     O O                                   . + +   o - s H | [ ' G ( ( ' I E A I c h A ",
"( ( ( ( U [ #.O.{ ' >.O.Y h 4 < i y #     O O O O                                   . . .     . * r G | | ^ I A c A ( G ( G c c ",
"( ` ] I I G A I G I I E I 1 1 u 4 & o       O   O . .                                             & Z U &.O.' G c v Y I ( b A A ",
"( ' E I _ E J I Y ( ] A 8 1 g ; @ @ o                                               .         O O   # c R E U ( v A E G @.Y I A ",
"( ' J ..( ] ( ( I U ] t 8 u < # # # o                                                                 & S I A G A 8 v h { I I E ",
"' U J E ( [ [ I G c e 8 h > $ @ @ +                                                                     + i A J ] G R i ( E I v ",
"( v U U E E R U G r 1 h 1 ; & # +                                                                         + t I ( _ J t A ( ( G ",
"I E E R v U E A h 9 h 8 ; = & o                                                                           . $ u I R G 0 A c E @.",
"I U R U k k A h r r r 1 ; * +                                                                             + 1 i 5 i R k k i k J ",
"] R E U X.G U l 9 d 2 : ; +                                                                               - u v Y 1 v R k A J I ",
"%.T ] ..] #.^ w s 9 : : *                                                                                   y c P h 5 I h E J I ",
"-.W ] [ { G x s j 7 , ; o .                                                                                 & h l v e I A J R A ",
"-. .] I G h s j s 2 1 $   .                                                                                   0 i t 8 k J J J G ",
"( _ ] [ G l s x w 2 < .                                                                                       - 6 < u 8 c A c A ",
"( ( ..U v d s d 7 8 * .                                                                                       O % @ h 4 k v A U ",
"( ] X.A s s j s 7 4 o .                                                                                       O O o C I ( v E E ",
"[ ( ] I d s n s 9 < .                                                                                               3 Z [ E U ] ",
"[ U E I d d j a 9 *                                                                                                 > A A E I ] ",
"[ ( ( v s d j a 9 @                                                                                                 & Z u A E ] ",
"[ ( ( h d m n a 7 .                                                                                                 + A _ E J ..",
"( [ Y r h m j s 2                                                                                                   o c ..J A E ",
"Y ( ( z h N x s 1                                                                                                   o R E J I [ ",
"[ I Y c h H H l 4                                                                                                   o A I G U ] ",
"( ( U h h H N x 8                                                                                                   o v A I Z G ",
"( [ @.h d N m m 8   O                                                                                               o k Z A A J ",
"( I { h h H U m r                                                                                                   & c G U I _ ",
"Y ( G c r H ~ N g                                                                                               .   = Z [ X.X.@.",
"U U L G r ( P N h o                                                                                             o . < J ] _ E X.",
"] E U v 8 l H B v #                                                                                         O   #   5 I ..U _ &.",
"( U ` L ; 1 m P H ;                                                                                         O   + + i k ( E -.%.",
"L Y { ' ( I P M B e                                                                                           + + & c I ] ..&.@.",
"[ E Y ' { ' H M B v +                                                                                     O O &   5 c -._ X.-.&.",
"[ ( O.( %.O.H H H H >                                                                                       o & + p I 4.@.E _ _ ",
"&.( O.[ *.&.^ I I H h o                                                                               O     & + < Z E X.%.[ R ] ",
"$.[ [ U O.%.$.Y I H N 1                                                                                     = @ i v U 3.#.%.[ E ",
"O.*.$.( Y | O.( A P m v *                                                                               . * @ 4 v G @.k.@.X.X.[ ",
"[ &.O.O.' ( [ A u m H m e .                                                                             + - # i A U ( &.@...] E ",
"O.&.' Y { ' Y J 5 h ! B m 4                                                                           o 3 + e A G { &.@.#.@.( I ",
"&.$.O.' ' [ ^ ( 5 8 N ~ B c ;   O                                                         O O O O     > * 8 c Y I #.#.@.X.@._ c ",
"' [ &.O.( { ( ] G > j m B M l = O O                                                         O O O X - > 1 v [ [ [ #.X.#.-.O.&.] ",
"| | O.{ O.$.&.` ' h : ) M ! H h *                                                               . - 5 ; c E >.O.&.#.X.>.X.] @._ ",
"1.| O.O.O.%.2.&.[ ( h 1 x n H m c -                                                   .       + 5 0 < h U #.] X.-.=.-.%.@.] ] E ",
"[ O.O.} #.:.6.*.1.&.O.u > s m Q N h 5 o                                               o o o * y r 8 c E O.@.W X.o.=._ @.#.@._ G ",
"O.{ [ $.O.:.>.&.:.$.&.>.v = U ! V M h y *                                           # 3 > 3 k e r v A U { %. .X.o. .I #.O.X._ G ",
"O.[ O.>.$.&.>.O.>.>.7.O._ T 6 G ) ~ Q n j 7 * .                           . . # * > 7 q r e = u k G ] ( #.X.#.,.-.X.] _ R [ E R ",
"$.{ O.&.>.7.>.>.@.@.&.#.( ] E > 4 F } ) ! H l 8 1 $ . .                 @ = 1 5 8 r j m l 5 - t A [ [ X.>.&.,.=.&.] @.] R G X.] ",
":.&.O.&.w.w.2.>.9.y.6.&.-.] I A h 4 / 2.O.) H M n l w 1 : ; * & & * ; > 2 9 d l H H x c v I U Z R [ [ @.&.X.R @.>._ _ ] [ I [ X.",
"#.{ ' { O.>.>.>.6.2.y.3.&.X.X.U [ U k 4 7 h j n M ~ P m x f j l h h v h N m m j m m v b ( O.[ @.X.E ] ,.%.=.O.X._ ( E ( 3.@...R ",
"&.{ Y { %.>.>.#.>.>.>.>.X.] ` ] X._ -.X.c 8 s w h x v m M M B H H m m v x l x l v I ` U E X.[ #...( [ X.>.[ X.] ..[ ( X.[ ..R ] ",
"$.[ I ' >.>.*.2.>.9.6.6.%.%.X.X._  .@.@.J v ] A c h 8 w h d j j d s d j r h l ( I ( { E [ X.[ ] #.@...-.>.#.=.X.X.=._ @.E ( ] X.",
"%.O.O.+.O.&.;.7.*.&.1.%.&.#.[ 6.#.] ..E ] { ( &.&.[ ( G ( v h r h G v ( L ( ] ' ] G @.#.] @.[ -.-.@.] #.-...&.@.] >.@.3.E R X.E ",
"$.$.&.} ' { &.>.&.O.>.>.&.*.#.6.#.&.X.E #.' U O.| ' &.*.' [ ( ( O.@.@.{ { ( %.&.O.X.] #.....[ [ =.@.#.&.@.X.-.[ @.#...X.U E R ] ",
"&.:.:.#.[ | | #.#.{ &.>.%.*.1.*.@.-.@.X.>.( E ` O.O.{ %.O.2.] X.O.@.&.( #.O.X.@.&.=._ >.=.@.&.@.@.-.-.>.-.@.&.%.&.] R _ O.>.X.] ",
"&.O.' ( { { O.&.*.O.%.O.*.#.&.[ #.-.=.X.=.( I ( O.#.1.>.>.7.%.X.>.2.&.@.%.{ &.] X.=.[ ..,.-.[ O.6.>.3.X.X.=.@.&.@.O.[ ] ..( U U ",
"O.[ O.' { ` ( ^ O.O.&.O.&.#.&.] ( ..@.X.E ( O.%.&.&.%.[ O.O.-.&.{ #.%.' *.&.3.&.X.I R ] [ R [ @.,.=.-.#.&.X.@.[ ..3._ ..] U J _ ",
"9.6.>.6.6.3.3.-.8.6.r.0.s.r.p.0.%.3.q.e.q.r.s.e.9.9.r.y.r.9.p.y.w.8.8.9.9.9.n.s.r.@.i.3.0.4.8.8.r.e.q.0.q.e.a.r.@.r.8.,.4.8.=.8."
};
