/* XPM */
static char *f27d95ff16f8446896d7004b24b5d631ylRMFByTL2i6fi4Y[] = {
/* columns rows colors chars-per-pixel */
"64 64 71 1 ",
"  c #000000",
". c #050609",
"X c #07090C",
"o c #090B0E",
"O c #0A0D12",
"+ c #0D1116",
"@ c #0E131B",
"# c #11161C",
"$ c #111721",
"% c #131A25",
"& c #1A1D26",
"* c #161D2A",
"= c #191F2C",
"- c #151F30",
"; c #19212F",
": c #162132",
"> c #1A2434",
", c #1C2639",
"< c #1D2A3C",
"1 c #212B3F",
"2 c #1F2F44",
"3 c #222E44",
"4 c #223147",
"5 c #25334B",
"6 c #28364E",
"7 c #2C394E",
"8 c #263752",
"9 c #263952",
"0 c #2B3B55",
"q c #2C3D5A",
"w c #2D415D",
"e c #324159",
"r c #294063",
"t c #2E4161",
"y c #2F456A",
"u c #304163",
"i c #324463",
"p c #334365",
"a c #334666",
"s c #344765",
"d c #324867",
"f c #31466B",
"g c #33496B",
"h c #354A6A",
"j c #354B6D",
"k c #384E6F",
"l c #314B72",
"z c #354A70",
"x c #344D70",
"c c #314C76",
"v c #364D74",
"b c #384E70",
"n c #384D74",
"m c #3C4F77",
"M c #365075",
"N c #385070",
"B c #3A507B",
"V c #3C537C",
"C c #3E567D",
"Z c #415375",
"A c #365280",
"S c #3B5583",
"D c #3D5887",
"F c #3C5B8F",
"G c #385A91",
"H c #3E5C90",
"J c #3D5C98",
"K c #405886",
"L c #405E90",
"P c #43669E",
"I c #4871BD",
/* pixels */
"                                                                ",
"                                                                ",
"                                                                ",
"                                                                ",
"                                                                ",
"                                                                ",
"                                                                ",
"                                                                ",
"                                                                ",
"                                                                ",
"                                                                ",
"                                                                ",
"                            O$%$O                               ",
"                         O4xbbzbxxt>O.                          ",
"                     O>18Lt@     O>tng<.                        ",
"                   O0Mt5rcvu*.      X%ttX                       ",
"                  $C3X    X>s#         4a.                      ",
"                 @b*        .          .j:                      ",
"                 p,                     %j                      ",
"                #v.     Xo               x@                     ",
"                04      #&        #&     w:                     ",
"                j:                .o     8:                     ",
"                h%                       0:                     ",
"                h%       +               g%                     ",
"                i:       00.     =&     On.                     ",
"                <aX      X0k8,**qm#     86                      ",
"                 0g@       #40wq1.     %VO                      ",
"                 .>vq%.               $x*                       ",
"                   .<Mx4@           .3C*                        ",
"                     .*0xvh6,8>;;><qnqO                         ",
"                         O%,4Pw0063:+                           ",
"                            .ko                                 ",
"                            Ox.                                 ",
"                            +N                                  ",
"                            Ok.     X                           ",
"                      :O     bO   .63                           ",
"                      fG45941Jq0dlBIhO                          ",
"                      4H4><<>A0>%@*Z*.                          ",
"                       7o    3<   .&                            ",
"                       .     ,4                                 ",
"                             >5                                 ",
"                             >5                                 ",
"                             >5                                 ",
"                             :8                                 ",
"                             -F%                                ",
"                            .ztD.                               ",
"                            00oV%                               ",
"                           3no :Mo                              ",
"                          %nO   2f.                             ",
"                         XS>    .p3                             ",
"                         @HO     XB*                            ",
"                         <y       %B*.                          ",
"                         e>        $Kj                          ",
"                         +.         $q                          ",
"                                                                ",
"                                                                ",
"                                                                ",
"                                                                ",
"                                                                ",
"                                                                ",
"                                                                ",
"                                                                ",
"                                                                ",
"                                                                "
};
