/* XPM */
static char *_b833d35907a4898d91b14eb92d1572bHbcxpFnjro1etOEy[] = {
/* columns rows colors chars-per-pixel */
"48 38 198 2 ",
"   c #B71F19",
".  c #BD3D10",
"X  c #C83718",
"o  c #DC3B1D",
"O  c #E92D1D",
"+  c #CD2421",
"@  c #D92221",
"#  c #DF3A23",
"$  c #E33627",
"%  c #BF4E0B",
"&  c #8F691E",
"*  c #B46B00",
"=  c #B96E00",
"-  c #B57301",
";  c #BB7503",
":  c #BD7B02",
">  c #BF7910",
",  c #95762D",
"<  c #A57C2C",
"1  c #CF580F",
"2  c #CF4814",
"3  c #D44D15",
"4  c #DE4E13",
"5  c #DF5313",
"6  c #E95909",
"7  c #CA6905",
"8  c #D8670B",
"9  c #DB6D09",
"0  c #C47E00",
"q  c #CD7D00",
"w  c #D07405",
"e  c #D57D01",
"r  c #DA7B03",
"t  c #DB7408",
"y  c #E86709",
"u  c #E57305",
"i  c #E67B03",
"p  c #E77906",
"a  c #E56210",
"s  c #917E40",
"d  c #BB810F",
"f  c #BC933E",
"g  c #C58001",
"h  c #CC8100",
"j  c #CA8B01",
"k  c #D48400",
"l  c #DB8500",
"z  c #D58A01",
"x  c #DC8A01",
"c  c #DB8D0F",
"v  c #D59401",
"b  c #DF9102",
"n  c #DC9508",
"m  c #C9891A",
"M  c #C49019",
"N  c #DD9417",
"B  c #E28300",
"V  c #E98300",
"C  c #E38B00",
"Z  c #ED8C00",
"A  c #F08700",
"S  c #F08900",
"D  c #E39400",
"F  c #ED9300",
"G  c #E69901",
"H  c #EB9C01",
"J  c #EF990A",
"K  c #E59D10",
"L  c #DDA40A",
"P  c #EBA303",
"I  c #E4AF0E",
"U  c #EEAC0E",
"Y  c #E9B70B",
"T  c #F0BB0D",
"R  c #EEA510",
"E  c #D78D21",
"W  c #DA8F26",
"Q  c #DD9220",
"!  c #C98F35",
"~  c #CD913F",
"^  c #E09B26",
"/  c #E19E31",
"(  c #CBA03A",
")  c #D1A035",
"_  c #E4A024",
"`  c #EAB92C",
"'  c #F4BC2B",
"]  c #E1A139",
"[  c #ECC11F",
"{  c #F4C527",
"}  c #F4C53C",
"|  c #FEE42A",
" . c #FFE634",
".. c #928049",
"X. c #AF8F45",
"o. c #B19348",
"O. c #A38E55",
"+. c #B49D5B",
"@. c #BCA147",
"#. c #B9A053",
"$. c #B8A367",
"%. c #B6A46B",
"&. c #BFAB71",
"*. c #CD9545",
"=. c #DA9E4D",
"-. c #DEA04C",
";. c #C2AB5D",
":. c #CCB25E",
">. c #E4A849",
",. c #E2A956",
"<. c #C6A661",
"1. c #CEB464",
"2. c #D8B764",
"3. c #C5B176",
"4. c #C9B57B",
"5. c #D7B674",
"6. c #D3BD7C",
"7. c #E2AC63",
"8. c #E5B26C",
"9. c #E7B877",
"0. c #EFC043",
"q. c #F6C545",
"w. c #F5C941",
"e. c #F0CF5E",
"r. c #F4D155",
"t. c #F9D652",
"y. c #FADE56",
"u. c #F3D15A",
"i. c #FDDA5C",
"p. c #D9C27A",
"a. c #EDD06C",
"s. c #F7D765",
"d. c #E4CA72",
"f. c #EACE74",
"g. c #EBC87D",
"h. c #EDD37D",
"j. c #F1D471",
"k. c #D1BE83",
"l. c #E3BD8E",
"z. c #D6C182",
"x. c #DAC585",
"c. c #DEC98C",
"v. c #D9C792",
"b. c #E4CD83",
"n. c #ECC388",
"m. c #E2CD8C",
"M. c #E7D185",
"N. c #EDD483",
"B. c #E7D28B",
"V. c #ECD48A",
"C. c #F3DB87",
"Z. c #F0DA8D",
"A. c #EAC898",
"S. c #F0CE95",
"D. c #EBD797",
"F. c #EAD69A",
"G. c #F2DC95",
"H. c #F4DF99",
"J. c #FFF488",
"K. c #F7E39F",
"L. c #FFF998",
"P. c #ECCDA5",
"I. c #ECCEA8",
"U. c #EFDEA3",
"Y. c #F2DAA5",
"T. c #E4D7B7",
"R. c #EED4B4",
"E. c #F2DAB9",
"W. c #EFE0AE",
"Q. c #F5E3A4",
"!. c #F4E3AA",
"~. c #F4E4B2",
"^. c #F8E9B5",
"/. c #F9EABA",
"(. c #F3DFC8",
"). c #E7E1C8",
"_. c #F3E4C2",
"`. c #F6EAC1",
"'. c #FAECC1",
"]. c #F4E0CC",
"[. c #F6ECCE",
"{. c #F9EECA",
"}. c #EEEAD8",
"|. c #F5E6D6",
" X c #FCF3D5",
".X c #F7F0DA",
"XX c #FCF5DC",
"oX c #F9EFE7",
"OX c #F7F2E5",
"+X c #FBF5E4",
"@X c #FEF9E7",
"#X c #FBF5EA",
"$X c #FFFAEB",
"%X c #FBF6F2",
"&X c #FEFBF3",
"*X c #FEFDFB",
"=X c #FEFDFC",
"-X c white",
/* pixels */
"-X-X-X-X-X-X-X-X-X-X-X-X-X-X-X-X-X-X-X-X-X-X-X-X-X-X-X-X-X-X-X-X-X-X-X-X-X-X-X-X-X-X-X-X-X-X-X-X",
"-X-X-X-X-X-X-X-X-X-X-X-X-X-X-X-X-X-X-X-X-X-X-X-X-X-X-X-X-X-X-X-X-X-X-X-X-X-X-X-X-X-X-X-X-X-X-X-X",
"-X-X-X-X-X-X-X-X-X-X-X-X-X-X-X-X-X-X-X-X-X-X*X*X*X-X-X-X-X-X-X-X-X-X-X-X-X-X-X-X-X-X-X-X-X-X-X-X",
"-X-X-X-X-X-X-X-X-X-X-X-X-X-X-X-X-X-X*X-X-X-X-X-X-X-X-X-X*X-X-X-X-X-X-X-X-X-X-X-X-X-X-X-X-X-X-X-X",
"-X-X-X-X-X-X-X-X-X-X-X-X-X-X-X-X-X-X-X*X|.R.S.S.Y._.#X-X-X-X*X-X-X-X-X-X-X-X-X-X-X-X-X-X-X-X-X-X",
"-X-X-X-X-X-X-X-X-X-X-X-X-X-X*X-X-X(.8.^ D G G G G G K >.A.%X-X-X-X-X-X-X-X-X-X-X-X-X-X-X-X-X-X-X",
"-X-X-X-X-X-X-X-X-X-X-X-X-X-X-X|.,.D D P P P P P P P P H D Q A.-X-X-X-X-X-X-X-X-X-X-X-X-X-X-X-X-X",
"-X-X-X-X-X-X-X-X-X-X-X-X-X-XA.x G P H H H H H H H H H P P D e =.%X-X*X-X-X-X-X-X-X-X-X-X-X-X-X-X",
"-X-X-X-X-X-X-X-X-X-X-X-X-Xg.D { U F H H H H F F F H F H H D b l W oX-X-X-X-X-X-X-X-X-X-X-X-X-X-X",
"-X-X-X-X-X-X-X-X-X-X*X-Xn.D s.L.t.F H F Z Z Z F F F F F F D x x l W %X-X-X-X-X-X-X-X-X-X-X-X-X-X",
"-X-X-X-X-X-X-X-X-X-X-XE.D U J.J.q.Z F S S A S Z S Z Z Z C C x x x l >.-X-X-X-X-X-X-X-X-X-X-X-X-X",
"-X-X-X-X-X-X-X-X-X-X-X_ H H ' } Z Z S Z F F F F Z S S Z C C x l x x e P.-X*X-X-X-X-X-X-X-X-X-X-X",
"-X-X-X-X-X-X-X-X*X-XA.D } R Z Z S Z F F H F F F H Z Z Z B x x l x x x E *X-X-X-X-X-X-X-X-X-X-X-X",
"-X-X-X-X-X-X-X-X-X-X^ H q.J F F Z F F F Z Z Z V Z 4 p C B l l l x x x q I.-X*X-X-X-X-X-X-X-X-X-X",
"-X-X-X-X-X-X-X-X-X(.D P F Z Z Z F F F V V V V i 4 @ o t C l l l x x z q =.-X-X-X-X-X-X-X-X-X-X-X",
"-X-X-X-X-X-X-X*X-Xn.D P F Z S S F F Z 6 y V i Z 6 o 2 x x l l x x x z h m %X-X-X-X-X-X-X-X-X-X-X",
"-X-X-X-X-X-X-X-X-X,.G P F Z Z S F Z 6 O $ a V V u C r r x l l x l l k h ; |.-X-X-X-X-X-X-X-X-X-X",
"-X-X-X-X-X-X-X-X-X] H H F Z S S F F y $ # p V i V B B x x l l l l k k g = R.-X-X-X-X-X-X-X-X-X-X",
"-X-X-X-X-X-X-X-X-X/ H H F Z S S F Z u V u u V V B B x r r b l k k k h : * I.-X*X-X-X-X-X-X-X-X-X",
"-X-X-X-X-X-X-X-X-X] H H F Z S A F F Z V V V V B B l t 3 3 w k k k h 0 ; * R.-X-X-X-X-X-X-X-X-X-X",
"-X-X-X-X-X-X-X-X-X>.H P F F Z S Z F Z V V i B B l l 8 +   7 k k k h 0 - = ].-X-X-X-X-X-X-X-X-X-X",
"-X-X-X-X-X-X-X*X-X9.G P F F F S Z F F V V 4 9 l l x 9 1 % w z k h g : - > #X-X-X-X-X-X-X-X-X-X-X",
"-X-X-X-X-X-X-X-X-XR.D P H F F S S Z F Z 5 + X 8 l l k z z e k k h 0 ; * ~ -X-X-X-X-X-X-X-X-X-X-X",
"-X-X-X-X-X-X-X-X-X%XN P H F F Z A Z Z D 8 X . l l l z k k k k k g : ; * l.-X*X-X-X-X-X-X-X-X-X-X",
"-X-X-X-X-X-X-X-X*X-X9.D P H F Z Z C C C r C e r l k k k k k k h 0 ; - > +X&X$X$X*X-X-X-X-X-X-X-X",
"-X-X-X-X-X-X-X-X-X-XoXc P H F Z C C B B C l l l l k k k k k k 0 : : * 5.*XXXXXXX@X$X&X*X-X-X-X-X",
"-X-X-X-X-X-X-X-X-X*X-XA.x P D C C C l x l l l l k k k k k k h : j I m T.`./.'.{. XXX@X$X&X-X-X-X",
"-X-X-X-X-X-X-X-X-X-X-X-X,.x G D x x x l l l l k k k k k k h 0 g } w.<.m.V.Z.G.H.Q.^. X@X$X&X-X-X",
"-X-X-X-X-X-X-X-X-X-X-X-X-X-.l D x z x l l l k k k k k k h h : j ` X.%.6.a.a.h.b.N.C.K.{.@X@X&X-X",
"-X-X-X-X-X-X-X-X-X-X-X-X-X-X7.k z z l l x z z z z k k z L Y v ; & ..$.4.p.d.u.d.c.B.Z.Q..X$X&X-X",
"-X-X-X-X-X-X-X-X-X-X-X-X-X-X-XI.E e b n z z z z v L [ |  .' d , s O.$.3.6.x.f.f.c.m.F.H.{.%X*X-X",
"-X-X-X-X-X-X-X-X-X-X-X-X-X-X-X-X%XA.0.{ T z q 0 Y | y.` M < o.@.#.$.&.4.k.x.c.m.b.B.F.Q.{.%X-X-X",
"-X-X-X-X-X-X-X-X-X-X-X-X-X-X-X*X-X-X*X_.V.2.*.! ) ( f o.+.;.:.1.2.5.6.z.x.c.m.M.B.D.U./. X%X-X-X",
"-X-X-X-X-X-X-X-X-X-X-X-X-X-X-X-X-X*X-X*XOX}.).T.v.z.d.u.t.t.r.r.u.e.d.b.b.M.N.N.D.W.`. X@X*X-X-X",
"-X-X-X-X-X-X-X-X-X-X-X-X-X-X-X-X-X-X-X*X#X.X[._.~.U.G.j.s.i.i.i.i.s.h.B.V.Z.G.U._..X#X%X*X-X-X-X",
"-X-X-X-X-X-X-X-X-X-X-X-X-X-X-X-X-X-X-X-X-X*X%X#X.X X{.'./.~.!.!.!.!.~.~.!.^.[.OX%X*X-X-X-X-X-X-X",
"-X-X-X-X-X-X-X-X-X-X-X-X-X-X-X-X-X-X-X-X-X-X-X-X*X*X%X$X@XXXXX XXX+X#X#X+X#X&X*X-X-X-X-X-X-X-X-X",
"-X-X-X-X-X-X-X-X-X-X-X-X-X-X-X-X-X-X-X-X-X-X-X-X-X-X-X-X-X-X*X*X*X-X-X-X-X-X-X-X-X-X-X-X-X-X-X-X"
};
