/* XPM */
static char *c2195f01fda24e67958d9868921181649pCZDsxiQ4qZDBLG[] = {
/* columns rows colors chars-per-pixel */
"48 32 78 1 ",
"  c black",
". c #010100",
"X c #010101",
"o c #020200",
"O c #000002",
"+ c #010103",
"@ c #020202",
"# c gray1",
"$ c #010005",
"% c #020204",
"& c #030305",
"* c #020106",
"= c #020107",
"- c #030207",
"; c #040404",
": c gray2",
"> c #040406",
", c #050507",
"< c #060606",
"1 c #070707",
"2 c #030208",
"3 c #040308",
"4 c #040309",
"5 c #04030B",
"6 c #050409",
"7 c #060608",
"8 c #070709",
"9 c #05040A",
"0 c #06050A",
"q c #06050B",
"w c #07060B",
"e c #05040C",
"r c #06050D",
"t c #07060C",
"y c #07060E",
"u c #08070C",
"i c #08070D",
"p c #08070F",
"a c gray3",
"s c #090909",
"d c #08080A",
"f c #09090B",
"g c #09080D",
"h c #0A0A0C",
"j c #0B0B0D",
"k c #09080E",
"l c #0A090E",
"z c #0A090F",
"x c #0B0A0F",
"c c #0C0C0C",
"v c #0C0C0E",
"b c #0D0D0F",
"n c gray6",
"m c #090810",
"M c #0A0911",
"N c #0B0A10",
"B c #0B0A12",
"V c #0C0B10",
"C c #0C0B11",
"Z c #0C0B13",
"A c #0D0C11",
"S c #0E0E10",
"D c #0F0F11",
"F c #0D0C12",
"G c #0E0D12",
"H c #0E0D13",
"J c #0F0E13",
"K c #0D0C14",
"L c #0E0D15",
"P c #0F0E14",
"I c #0F0E16",
"U c #100F15",
"Y c #100F17",
"T c #101010",
"R c #101012",
"E c #111016",
"W c #121116",
"Q c #141416",
/* pixels */
"11@a1a@@@@1&&a8&848h4&VNhe24ehu811&&1881@@@@@@@@",
"11111naa11a8&188888888NNu8eh84&uu811881&ha1@@@@@",
"@1n111@1ha8888888ue&eh8eNehhhh48h888u8&&1>1@@@@@",
"@1T11@1188&884h8u8u8uNeuheh8eV82h848u811&1@@111@",
"8&@&1111188he&hVu4NVhNhhehPhehuhu448uuuu888&@@@@",
"ha&8a881188h84uN8&hSeuVNuNSPNehSh848888uahn8@@@@",
"@&8h8818818ue888ueeheeNNNNeNN8uuhu848888&8aa&@@@",
"&1nhaa&a11VVhu8ePUhehhZNZPeuheNehhu84888u8111&@@",
"&&h888881a8u8hhuPh8hVNNZYNNVNPNPhue4uu84hVh&8a@&",
"118118h8ahu88Sh8heehhepNNNVPNNhNVhNue42u4884&&&1",
"&1&818haQn8hhhhuNhhNVVNNNNNNNNNeSNhhNu8hu488&&a&",
"&11n818nSh&VV4NVNhhNVPVNZVNNNpSeVhhhNh8u8&&8&1a@",
"88hS8a8hhhhSShNVhhVVVSSSpZPPV8ShNVPhue8huh888&1&",
"88h8&naaa&VhhV48NVSSSPPPNNSVNuVNNVVuuhehPPu8u8&@",
"118&&ah88&huSShhhueNPPVhVhuhhVNVhhppNNuuNe4&88&&",
"88888@888Th888P888uNSVNuhehSNSuVueNZNp4uh884&2&8",
"888Sa1ahhnhueehVh8PVhNShuhVUSVhNNNNpVNeVu4h&1188",
"h8&8hhh88ahVPPNu8uSSUheSShNSWPSh4NVuNShu8h8h&&81",
"841@hh818nSh44hUh4hSPNNSVhNNUSShNeeuhuuPh811h1a@",
"&8a&aa1ahnh8euhNV8hVNVPNuuNNSNNNeeNuehhhu4a8&11h",
"888&1h8naa88VSh8NShhNhuShNuNNVNSNNVu8uuuu4h8111h",
"88&88a1h&8u888uhhh8hNhuVVVNVeNNUPNuue88SV888S8n&",
">>&8a8118aa88888Nu2huhVuNVVVu8hS8NN8uN888V8S1a81",
"81&1h8a&SShaahhhuWu88huNVNNhSue8hu84ue&u888a@a@&",
"1@1h&11&8a8haa88uNVuSNNNuSh8SSSehPS2848h&&a&@@&8",
"@@aa8&8&1@ah1a11uhuuVPNNNeuNe4NuNVuu4hhuu881a88&",
"@1hn88a1888S88h18hhhhhuNeSVhNPVeNhNS4ehh8818h&1@",
"@>8h&881dh&na&n8&8hVueeheN8hSPhNN48ehuh4&2&88@11",
"1&8181e&88&888&a44uuhuhhNhuu&NVhNuueSu88>1&8a@11",
"818188844h&8h8&auuh8ueVNVPS82SVeeSVPh8&S11>8h&11",
"&11h48&&8h&hn8aauhSheuNhNuueSh2huu4u88&2>1d81@@@",
"&8nnV444h&188h1a8hhVuPV88&Nue8hSV4uuh8e&11d11&@@"
};
