/* XPM */
static char *_2abd48c257949eef1213c90654a908dZKDunA3QPBj0kTSu[] = {
/* columns rows colors chars-per-pixel */
"48 48 75 1 ",
"  c #00733F",
". c #007643",
"X c #007846",
"o c #007D4D",
"O c #047F50",
"+ c #068152",
"@ c #0B8355",
"# c #0F8558",
"$ c #12875A",
"% c #16885D",
"& c #198A5F",
"* c #1D8C61",
"= c #228E64",
"- c #299067",
"; c #2C936B",
": c #32956E",
"> c #349770",
", c #369872",
"< c #3C9A75",
"1 c #439C77",
"2 c #439E7B",
"3 c #45A07C",
"4 c #4AA27F",
"5 c #4CA381",
"6 c #53A685",
"7 c #56A887",
"8 c #57A888",
"9 c #5AAA8A",
"0 c #61AD8E",
"q c #64AF91",
"w c #6CB296",
"e c #73B69B",
"r c #77B89E",
"t c #79B99F",
"y c #7EBCA2",
"u c #82BEA5",
"i c #85C0A7",
"p c #87C0A8",
"a c #8DC3AC",
"s c #90C4AE",
"d c #93C6B1",
"f c #96C8B3",
"g c #9ACAB6",
"h c #9DCBB8",
"j c #A3CFBD",
"k c #A6D0BF",
"l c #A9D1BF",
"z c #ADD4C3",
"x c #B2D6C5",
"c c #B5D9C9",
"v c #B9DACB",
"b c #C3DFD2",
"n c #C5E0D4",
"m c #C8E1D5",
"M c #CCE3D8",
"N c #D2E6DC",
"B c #D6E8DE",
"V c #DBEBE2",
"C c #DCEBE3",
"Z c #DCECE5",
"A c #E0EDE6",
"S c #E5F0E9",
"D c #EAF2EC",
"F c #EDF4EF",
"G c #EFF5F1",
"H c #F1F6F2",
"J c #F3F8F3",
"K c #F4F8F3",
"L c #F3F8F4",
"P c #F4F8F4",
"I c #F9FAF7",
"U c #FAFBF8",
"Y c #FBFCF9",
"T c #FCFCF9",
"R c #FEFEFE",
/* pixels */
"RRRRRRRRRRRRRRRRRRRRRRRRRRRRRRRRRRRRRRRRRRRRRRRR",
"RZjjjjjjjjjjjjjjjjjjjjjjjjjjjjjjjjjjjjjjjjjjjjZR",
"Rh oooooooooooooooooooooooooooooooooooooooooo hR",
"Rjo%$$$$$$$$$$$$$$$$$$$$$$$$$$$$$$$$$$$$$$$$%ojR",
"Rjo$######$$$$$$$$$$$$$$$$$$$$$$$$$$$$######$ojR",
"Rjo$#######++++++++++++++++++++++++++@$#####$ojR",
"Rjo$######&:::::::::::::::;;;:::::>>,*#$####$ojR",
"Rjo$####$o9RHHHHHHHHHHHKHHRRRPHPPPPHRto$####$ojR",
"Rjo$####$o9RHPPPPPPPPPPPPUzugFYHPPPHRro$####$ojR",
"Rjo$####$o9RHLPPPPPLLPJHI0ooo>SIHPPHRro$####$ojR",
"Rjo$####$o9RHPPPPPPPPPHRzo$$%oeRHPPHRro$####$ojR",
"Rjo$####$o9RHPPPPPPPPPHRyo$#$+3THPPHRro$####$ojR",
"Rjo$####$o9RHPPPPPPPPPHRfo%$%o9RHPPHRro$####$ojR",
"Rjo$####$o9RHPPPHHHHHHGJS;XOo#mTHPPHRro$####$ojR",
"Rjo$####$o9RHPPHURRRRRRRRHy69bRHPPPHRro$####$ojR",
"Rjo$####$o9RHPHTVjhgggggfhkjGRGPPPPHRro$####$ojR",
"Rjo$####$o9RHHUA=oOooooooooo;DIHPPPHRro$####$ojR",
"Rjo$####$o9RHHR9o%+++#$$$$$%o5TLJPPHRro$####$ojR",
"Rjo$####$o9RGRvO$$678:@$####%oeRHPPHRro$####$ojR",
"Rjo$####$o9RHP,@oqRTR2+$###$#$ogRFHFReo$####$ojR",
"Rjo$####$o7TRao$%ZPTzo$###$#&@$+vRRRRyo$####$ojR",
"Rjo$####$o6RV*$opRGT2O$#####m5o#*uiua2+$####$ojR",
"Rjo$####$o6Rvoo-HHRv+$###$o9RS-+$oooo@$#####$ojR",
"Rjo$####$o7RPu1bTGR6o$###$@mUTN$oOooo@$#####$ojR",
"Rjo$####$o7RHRRTHTm@####$o6RHHRnweeet<+$####$ojR",
"Rjo$####$o7RHHHHHRao$#$#$@bTHPHTRRRRRyo$####$ojR",
"Rjo$####$o7RHPPPHReo$#@$$@bTHPPHHHHFReo$####$ojR",
"Rjo$####$o7RHPPPHR9o$&-@$o6RHPPPPPPHRro$####$ojR",
"Rjo$####$o7RHPPPHR6o#=g@$$+bRHPPPPPHRro$####$ojR",
"Rjo$####$o7RHPPPHT4O#&D5o%o6RHPPPPPHRro$####$ojR",
"Rjo$####%+7RHHHHHI<+#*Pvo$$+bTHPPPPHRro$####$ojR",
"Rjo$###$+.8RPUUUUI:@@-FT2O%o8RHPPPPHRro$####$ojR",
"Rjo$##$o5dxVVCCCAB=#+,HRxO$$@nTHPPPHRro$####$ojR",
"Rjo$#$oyj<*$%%%&&%#$+<IHT2O%o9RHPPPHRro$####$ojR",
"Rjo$$o9jo+#$$$$$#$$%+2TGRxO$$@mTHPPHRro$####$ojR",
"Rjo$$@l%o+ooooooooooouRHHT2O%o9RHPPHRro$####$ojR",
"Rjo$@*mfdsdhhhhhhhjjvPPPHRxo$$@mTHPHRro$####$ojR",
"Rjo$#$-,,-rRRRRRRRRRRPPPPHT2O%o9RHPHRro$####$ojR",
"Rjo$##@+@o6TFHHHHHHHHPPPPHRxo$#@MTHHRro$####$ojR",
"Rjo$##$$$o9RHPPPPPPPPPPPPPHT2O&OqRHHRro$####$ojR",
"Rjo$####$o9RHPPPPPPPPPPPPPHTbOooobTGRro$####$ojR",
"Rjo$####$o9RHPPPPPPPPPPPPPPGRmww9gRGReo$####$ojR",
"Rjo$####$o6RHPPPPPPPPPPPPPHTSzccvPPGRyo$####$ojR",
"Rjo$###$@okTGHHHHHHHHHHHHGRA;oo.pIGYD,+$####$ojR",
"Rjo%$$$$$xRRRRRRRRRRRRRRRRC-+%&cRRRG<+%$$$$$%ojR",
"Rh ooooX0bzxxxxxxxxxxxxxxj$XOXwbzxx;.oooooooo hR",
"RZjjjjjjkghhhhhhhhhhhhhhhghkjjkghhghkjjjjjjjjjZR",
"RRRRRRRRRRRRRRRRRRRRRRRRRRRRRRRRRRRRRRRRRRRRRRRR"
};
