/* XPM */
static char *result[] = {
/* columns rows colors chars-per-pixel */
"40 40 2 1 ",
"  c #341D1D",
". c #502F2F",
/* pixels */
"    .....................               ",
"    .....................               ",
"    .....................               ",
"    .....................               ",
"    .....................               ",
"     ...................                ",
"     ...................  .....         ",
"     .............................      ",
"      ..................................",
"       .................................",
"      ..................................",
"      ..................................",
"     ...................................",
"     ...................................",
" ..  ...................................",
"........................................",
"........................................",
"........................................",
"........................................",
"........................................",
"........................................",
"........................................",
"........................................",
"........................................",
"........................................",
"........................................",
"........................................",
"............................   .........",
".............................     ......",
".............................          .",
".............................          .",
".............................          .",
".............................          .",
"........ ....................           ",
"......   ....................           ",
"         ....................          .",
"         ....................         ..",
"          ..................         ...",
"          ..................         ...",
"           ................         ...."
};
